<svg xmlns="http://www.w3.org/2000/svg" width="42.806" height="36.047" viewBox="0 0 42.806 36.047">
  <g id="Group_14175" data-name="Group 14175" transform="translate(-466 -134)">
    <rect id="Rectangle_16958" data-name="Rectangle 16958" width="28" height="11" transform="translate(473 143.047)" fill="#00cf9e"/>
    <g id="noun-cement-mixer-5004933" transform="translate(466 134)">
      <path id="Path_6394" data-name="Path 6394" d="M33.277,41.537H21.261a.751.751,0,0,1-.533-.218l-7.51-7.51A.751.751,0,0,1,13,33.277V21.261a.751.751,0,0,1,.218-.533l7.51-7.51A.751.751,0,0,1,21.261,13H33.277a.751.751,0,0,1,.533.218l7.51,7.51a.751.751,0,0,1,.218.533V33.277a.751.751,0,0,1-.218.533l-7.51,7.51A.751.751,0,0,1,33.277,41.537Zm-11.708-1.5h11.4l7.067-7.067v-11.4L32.969,14.5h-11.4L14.5,21.569v11.4Z" transform="translate(-6.241 -13)"/>
      <path id="Path_6395" data-name="Path 6395" d="M8.751,47.522A.751.751,0,0,1,8,46.771V31.751a.751.751,0,1,1,1.5,0v15.02A.751.751,0,0,1,8.751,47.522Z" transform="translate(-4.996 -17.482)"/>
      <path id="Path_6396" data-name="Path 6396" d="M7.755,58.51a3.755,3.755,0,1,1,3.755-3.755A3.755,3.755,0,0,1,7.755,58.51Zm0-6.008a2.253,2.253,0,1,0,2.253,2.253A2.253,2.253,0,0,0,7.755,52.5Z" transform="translate(-4 -22.462)"/>
      <path id="Path_6397" data-name="Path 6397" d="M12.506,32.5H8.751a.751.751,0,1,1,0-1.5h3.755a.751.751,0,1,1,0,1.5Z" transform="translate(-4.996 -17.482)"/>
      <path id="Path_6398" data-name="Path 6398" d="M54.751,47.522A.751.751,0,0,1,54,46.771V31.751a.751.751,0,1,1,1.5,0v15.02A.751.751,0,0,1,54.751,47.522Z" transform="translate(-16.451 -17.482)"/>
      <path id="Path_6399" data-name="Path 6399" d="M53.755,58.51a3.755,3.755,0,1,1,3.755-3.755A3.755,3.755,0,0,1,53.755,58.51Zm0-6.008a2.253,2.253,0,1,0,2.253,2.253A2.253,2.253,0,0,0,53.755,52.5Z" transform="translate(-15.455 -22.462)"/>
      <path id="Path_6400" data-name="Path 6400" d="M53.506,32.5H49.751a.751.751,0,0,1,0-1.5h3.755a.751.751,0,0,1,0,1.5Z" transform="translate(-15.206 -17.482)"/>
      <path id="Path_6401" data-name="Path 6401" d="M41.288,56.5H12.751a.751.751,0,1,1,0-1.5H41.288a.751.751,0,1,1,0,1.5Z" transform="translate(-5.992 -23.459)"/>
      <path id="Path_6402" data-name="Path 6402" d="M58.506,32.5H54.751a.751.751,0,1,1,0-1.5h3.755a.751.751,0,0,1,0,1.5Z" transform="translate(-16.451 -17.482)"/>
      <path id="Path_6403" data-name="Path 6403" d="M59.751,36.518A.751.751,0,0,1,59,35.767V23.751a.751.751,0,1,1,1.5,0V35.767A.751.751,0,0,1,59.751,36.518Z" transform="translate(-17.696 -15.49)"/>
    </g>
  </g>
</svg>
