<svg id="Component_55_288" data-name="Component 55 – 288" xmlns="http://www.w3.org/2000/svg" width="18.644" height="20.958" viewBox="0 0 18.644 20.958">
  <g id="Group_12833" data-name="Group 12833">
    <path id="Path_6038" data-name="Path 6038" d="M21.951,9.016a1.726,1.726,0,0,1,3.1,1.506,8.681,8.681,0,0,0-3.194,0A1.72,1.72,0,0,1,21.951,9.016Z" transform="translate(-14.124 -8.156)" fill="#666"/>
    <path id="Path_6039" data-name="Path 6039" d="M23.191,39.144a2.546,2.546,0,0,1-2.51-2.171H25.7A2.547,2.547,0,0,1,23.191,39.144Z" transform="translate(-13.869 -18.185)" fill="#666"/>
    <path id="Path_6040" data-name="Path 6040" d="M26.722,27.148H9.182a.56.56,0,0,1-.543-.468.573.573,0,0,1,.441-.669A3.46,3.46,0,0,0,11.313,24.5a3.7,3.7,0,0,0,.548-2.713,3.916,3.916,0,0,0-.139-.538,7.15,7.15,0,0,1,0-4.572,6.639,6.639,0,0,1,6.229-4.584,6.372,6.372,0,0,1,2.2.394,6.949,6.949,0,0,1,4.031,8.762,3.726,3.726,0,0,0,.142,2.769,3.5,3.5,0,0,0,1.983,1.852,3.182,3.182,0,0,0,.518.144.576.576,0,0,1-.1,1.137Z" transform="translate(-8.629 -9.116)" fill="#666"/>
  </g>
</svg>
