<svg id="vuesax_bold_camera" data-name="vuesax/bold/camera" xmlns="http://www.w3.org/2000/svg" width="36.346" height="36.346" viewBox="0 0 36.346 36.346">
  <g id="camera" transform="translate(0 0)">
    <path id="Vector" d="M23.864,6.058a2.489,2.489,0,0,1-2.2-1.348l-1.09-2.2A5,5,0,0,0,16.519,0H13.051A5,5,0,0,0,8.977,2.514l-1.09,2.2a2.489,2.489,0,0,1-2.2,1.348A5.684,5.684,0,0,0,.012,12.1L.8,24.609c.182,3.12,1.863,5.679,6.042,5.679H22.713c4.18,0,5.846-2.559,6.042-5.679L29.543,12.1A5.684,5.684,0,0,0,23.864,6.058ZM12.506,7.951h4.543a1.136,1.136,0,0,1,0,2.272H12.506a1.136,1.136,0,1,1,0-2.272Zm2.272,16.462A5.119,5.119,0,1,1,19.9,19.294,5.122,5.122,0,0,1,14.778,24.412Z" transform="translate(3.395 3.029)" fill="#14171f"/>
    <path id="Vector-2" data-name="Vector" d="M0,0H36.346V36.346H0Z" fill="none" opacity="0"/>
  </g>
</svg>
