<svg xmlns="http://www.w3.org/2000/svg" width="13.784" height="14" viewBox="0 0 13.784 14">
  <g id="Group_700" data-name="Group 700" transform="translate(-11.7 -11.2)">
    <path id="Path_921" data-name="Path 921" d="M22.691,16.5v1.426a1.352,1.352,0,0,1-2.7,0V16.5H17.2v1.426a1.352,1.352,0,0,1-2.7,0V16.5A2.85,2.85,0,0,0,11.7,19.316v6.97a2.934,2.934,0,0,0,2.883,2.957H22.6a2.923,2.923,0,0,0,2.883-2.957v-6.97A2.838,2.838,0,0,0,22.691,16.5Zm1.73,9.786a1.863,1.863,0,0,1-1.8,1.9H14.583a1.852,1.852,0,0,1-1.8-1.9v-5.72H24.4v5.72Z" transform="translate(0 -4.043)"/>
    <path id="Path_922" data-name="Path 922" d="M31.3,14.377a.83.83,0,0,0,1.66,0V12.03a.83.83,0,1,0-1.66,0Z" transform="translate(-16.181)"/>
    <path id="Path_923" data-name="Path 923" d="M61.8,14.377a.83.83,0,0,0,1.66,0V12.03a.83.83,0,1,0-1.66,0Z" transform="translate(-41.36)"/>
  </g>
</svg>
