<svg xmlns="http://www.w3.org/2000/svg" width="337" height="378.842" viewBox="0 0 337 378.842">
  <g id="undraw_cancel_re_pkdm" transform="translate(0)">
    <circle id="Ellipse_1891" data-name="Ellipse 1891" cx="145.952" cy="145.952" r="145.952" transform="translate(45.095)" fill="#ffe6eb"/>
    <path id="Path_6191" data-name="Path 6191" d="M299.783,112.051H32.418a1.038,1.038,0,0,1,0-2.076H299.783a1.038,1.038,0,0,1,0,2.076Z" transform="translate(-13.358 -46.782)" fill="#cacaca"/>
    <rect id="Rectangle_10876" data-name="Rectangle 10876" width="94.013" height="20.104" rx="10.052" transform="translate(111.346 100.255)" fill="#fff"/>
    <path id="Path_6192" data-name="Path 6192" d="M120.734,244.445h169.4A10.052,10.052,0,0,1,300.188,254.5h0a10.052,10.052,0,0,1-10.052,10.052h-169.4A10.052,10.052,0,0,1,110.682,254.5h0A10.052,10.052,0,0,1,120.734,244.445Z" transform="translate(-47.082 -103.983)" fill="#fff"/>
    <path id="Path_6193" data-name="Path 6193" d="M120.734,314.418h169.4a10.052,10.052,0,0,1,10.052,10.052h0a10.052,10.052,0,0,1-10.052,10.052h-169.4a10.052,10.052,0,0,1-10.052-10.052h0A10.052,10.052,0,0,1,120.734,314.418Z" transform="translate(-47.082 -133.749)" fill="#fff"/>
    <path id="Path_6194" data-name="Path 6194" d="M61.365,622.857l-.4-.039A46.273,46.273,0,0,1,27.53,602.926a44.894,44.894,0,0,1-5.065-10.058l-.121-.339.358-.029c4.279-.344,8.675-1.07,10.628-1.416l-12.593-4.267-.078-.374a8.776,8.776,0,0,1,3.694-9.114,8.926,8.926,0,0,1,10-.169c1.371.876,2.805,1.743,4.192,2.582,4.765,2.882,9.693,5.863,13.388,9.942a27.969,27.969,0,0,1,6.683,23.131l2.748,10.042Z" transform="translate(-8.706 -244.898)" fill="#f2f2f2"/>
    <path id="Path_6195" data-name="Path 6195" d="M171.3,629.138H177.5l2.953-23.94H171.3Z" transform="translate(-72.867 -257.442)" fill="#a0616a"/>
    <path id="Path_6196" data-name="Path 6196" d="M170.919,650.492H190v-.241a7.429,7.429,0,0,0-7.429-7.428h0l-3.486-2.645-6.5,2.645h-1.666v7.67Z" transform="translate(-72.706 -272.321)" fill="#2f2e41"/>
    <path id="Path_6197" data-name="Path 6197" d="M84.741,602.769l4.964,3.724,16.729-17.377-7.327-5.5Z" transform="translate(-36.048 -248.262)" fill="#a0616a"/>
    <path id="Path_6198" data-name="Path 6198" d="M77.674,621.188l15.267,11.453.145-.193a7.429,7.429,0,0,0-1.484-10.4h0l-1.2-4.208-6.79-1.788-1.333-1-4.6,6.136Z" transform="translate(-33.041 -261.634)" fill="#2f2e41"/>
    <path id="Path_6199" data-name="Path 6199" d="M110.234,437.116s.343,9.346.775,16.841c.071,1.229-2.809,2.565-2.734,3.9.049.887.591,1.75.641,2.675.053.976-.694,1.84-.641,2.85.052.986.9,2.118.956,3.127.553,10.866,2.56,23.873.551,27.509-.99,1.792-13.61,26.619-13.61,26.619s7.031,10.547,9.04,7.031c2.653-4.643,23.1-26.368,23.1-30.516s4.731-35.2,4.731-35.2l3.3,18.377,1.513,3.641-.475,2.138L138.36,489l.053,2.855.952,5.3s-2.863,41.3-1.251,42.454,9.447,3.229,10.371,1.155,6.9-43.107,6.9-43.107.964-18.8,2.009-36.282c.06-1.014.773-2.24.829-3.239.065-1.16-.387-2.667-.327-3.792.065-1.291.638-2.2.693-3.435.427-9.548-1.97-21.174-2.733-22.319-2.305-3.455-4.38-6.218-4.38-6.218s-31.05-10.2-39.347.165l-1.9,14.581Z" transform="translate(-40.91 -177.762)"/>
    <path id="Path_6200" data-name="Path 6200" d="M151.931,282.282l-12.309-2.462-5.744,7.8h0c-10.718,10.539-10.88,19.84-8.966,34.749V343.29l-1.385,14.027s-4.9,10.254.154,12.642,38.269,2.184,41.44,1.231.422-2.123-.41-6.565c-1.564-8.343-.518-4.319-.41-6.975,1.543-38.1-2.051-53.748-2.416-57.86l-6.26-11.354-3.693-6.154Z" transform="translate(-51.639 -119.031)" fill="#3f3d56"/>
    <path id="Path_6201" data-name="Path 6201" d="M262.237,332.117a4.976,4.976,0,0,1-7.461,1.6L228.195,350.6l.077-9.189,25.822-14.985a5,5,0,0,1,8.144,5.694Z" transform="translate(-97.07 -138.143)" fill="#a0616a"/>
    <path id="Path_6202" data-name="Path 6202" d="M148.855,302.355l-3.026-.321a8.008,8.008,0,0,0-7.228,3.155,7.8,7.8,0,0,0-1.365,2.868l0,.008a8,8,0,0,0,3.021,8.321l10.452,7.706C158.042,334,171.828,340.581,188,345.923l25.135-15.61-8.89-10.767L187,328.785l-25.627-19.838-.015-.012-9.754-6.284-2.753-.3Z" transform="translate(-58.281 -128.462)" fill="#3f3d56"/>
    <circle id="Ellipse_1892" data-name="Ellipse 1892" cx="14.354" cy="14.354" r="14.354" transform="translate(81.779 128.499)" fill="#a0616a"/>
    <path id="Path_6203" data-name="Path 6203" d="M167.5,273.59l-.348.009c-.05.129-.1.256-.165.381Z" transform="translate(-71.033 -116.381)" fill="#2f2e41"/>
    <path id="Path_6204" data-name="Path 6204" d="M174.732,249.3a2.544,2.544,0,0,0,.1.416A1.96,1.96,0,0,0,174.732,249.3Z" transform="translate(-74.328 -106.047)" fill="#2f2e41"/>
    <path id="Path_6205" data-name="Path 6205" d="M167.052,222.273c-.591,1.835-1.118-.493-3.062-.074a8.766,8.766,0,0,1-6.973-1.1,10.8,10.8,0,0,0-9.9-1.508c-3.276,1.159-8.765,1.976-9.619,5.345a9.37,9.37,0,0,1-1.134,3.412,11.961,11.961,0,0,1-2.451,1.985c-2.8,2.205-.661,8.47.666,11.78a12.975,12.975,0,0,0,7.714,6.957,27.25,27.25,0,0,0,10.2,1.312,7.742,7.742,0,0,0-.154-4.971,31.439,31.439,0,0,1-1.555-5.25c-.224-1.815.268-3.876,1.79-4.89,1.4-.932,3.674-.364,4.207,1.143-.31-1.884,1.6-3.707,3.566-4.027,2.113-.344,4.225.418,6.332.8s1.359-8.489.369-10.909Z" transform="translate(-56.382 -93.161)" fill="#2f2e41"/>
    <circle id="Ellipse_1893" data-name="Ellipse 1893" cx="29.374" cy="29.374" r="29.374" transform="translate(129.976 191.026) rotate(-85.269)" fill="#e84d88"/>
    <path id="Path_6206" data-name="Path 6206" d="M279.321,263.717l-7.716,7.716-7.716-7.716a3.2,3.2,0,0,0-4.523,4.523l7.716,7.716-7.716,7.716a3.2,3.2,0,0,0,4.523,4.523l7.716-7.716,7.716,7.716a3.2,3.2,0,0,0,4.523-4.523l-7.716-7.716,7.716-7.716a3.2,3.2,0,0,0-4.523-4.523Z" transform="translate(-109.931 -111.783)" fill="#fff"/>
    <path id="Path_6207" data-name="Path 6207" d="M248.769,240.184a4.976,4.976,0,0,1-4.009,6.493l-6.223,30.867-6.578-6.417,7.064-29.008a5,5,0,0,1,9.747-1.934Z" transform="translate(-98.672 -100.7)" fill="#a0616a"/>
    <path id="Path_6208" data-name="Path 6208" d="M142.306,291.446l-2.327,1.962a8.008,8.008,0,0,0-2.727,7.4,7.8,7.8,0,0,0,1.125,2.971l0,.007a8,8,0,0,0,8.1,3.581l12.8-2.208c12.23,1.569,26.519-3.827,41.569-11.8l6.137-28.945-13.925-1.039-5.268,18.837-32.057,4.759-.019,0-11.287,2.688Z" transform="translate(-58.34 -112.037)" fill="#3f3d56"/>
    <path id="Path_6209" data-name="Path 6209" d="M156.834,657.977.682,658.154a.684.684,0,0,1,0-1.368l156.152-.177a.684.684,0,0,1,0,1.368Z" transform="translate(0 -279.311)" fill="#cacaca"/>
    <g id="Group_13486" data-name="Group 13486" transform="translate(27.766 42.184)">
      <ellipse id="Ellipse_1894" data-name="Ellipse 1894" cx="4.859" cy="4.968" rx="4.859" ry="4.968" fill="#3f3d56"/>
      <ellipse id="Ellipse_1895" data-name="Ellipse 1895" cx="4.859" cy="4.968" rx="4.859" ry="4.968" transform="translate(16.787)" fill="#3f3d56"/>
      <ellipse id="Ellipse_1896" data-name="Ellipse 1896" cx="4.859" cy="4.968" rx="4.859" ry="4.968" transform="translate(33.573)" fill="#3f3d56"/>
      <path id="Path_6210" data-name="Path 6210" d="M145.663,83.078a.573.573,0,0,1-.411-.173l-3.279-3.352a.574.574,0,0,1,0-.8l3.279-3.351a.575.575,0,0,1,.822.8l-2.886,2.95,2.886,2.95a.575.575,0,0,1-.411.976Z" transform="translate(-88.089 -74.184)" fill="#3f3d56"/>
      <path id="Path_6211" data-name="Path 6211" d="M157.679,83.078a.575.575,0,0,1-.411-.976l2.885-2.95-2.885-2.95a.575.575,0,1,1,.822-.8l3.279,3.351a.574.574,0,0,1,0,.8l-3.279,3.352A.573.573,0,0,1,157.679,83.078Z" transform="translate(-94.595 -74.184)" fill="#3f3d56"/>
      <path id="Path_6212" data-name="Path 6212" d="M451.169,74.414h-6.1a1.258,1.258,0,0,0-1.258,1.258v6.1a1.258,1.258,0,0,0,1.258,1.258h6.1a1.263,1.263,0,0,0,1.264-1.258v-6.1A1.263,1.263,0,0,0,451.169,74.414Z" transform="translate(-216.557 -73.839)" fill="#3f3d56"/>
      <path id="Path_6213" data-name="Path 6213" d="M425.169,74.414h-6.1a1.258,1.258,0,0,0-1.258,1.258v6.1a1.258,1.258,0,0,0,1.258,1.258h6.1a1.263,1.263,0,0,0,1.264-1.258v-6.1A1.263,1.263,0,0,0,425.169,74.414Z" transform="translate(-205.497 -73.839)" fill="#3f3d56"/>
      <path id="Path_6214" data-name="Path 6214" d="M475.669,74.914h-6.1a1.258,1.258,0,0,0-1.258,1.258v6.1a1.258,1.258,0,0,0,1.258,1.258h6.1a1.263,1.263,0,0,0,1.264-1.258v-6.1A1.263,1.263,0,0,0,475.669,74.914Z" transform="translate(-226.979 -74.052)" fill="#3f3d56"/>
      <path id="Path_6215" data-name="Path 6215" d="M283.979,78.954H235.246a1.534,1.534,0,1,0,0,3.068h48.733a1.534,1.534,0,0,0,0-3.068Z" transform="translate(-127.183 -75.77)" fill="#3f3d56"/>
    </g>
  </g>
</svg>
