<svg xmlns="http://www.w3.org/2000/svg" width="18.667" height="15.981" viewBox="0 0 18.667 15.981">
  <g id="Group_12835" data-name="Group 12835" transform="translate(-1052.666 -59.664)">
    <g id="Group_12834" data-name="Group 12834" transform="translate(1052.666 59.664)">
      <path id="Path_6041" data-name="Path 6041" d="M35.3,19.375a4.616,4.616,0,0,0-2.763-1.26,22.433,22.433,0,0,0-2.8-.105H24.924a22.433,22.433,0,0,0-2.8.105,4.34,4.34,0,0,0-4.023,4.023,22.458,22.458,0,0,0-.105,2.8v2.2a22.434,22.434,0,0,0,.105,2.8,4.34,4.34,0,0,0,4.023,4.023c.417.055,9.993.055,10.41,0a4.34,4.34,0,0,0,4.023-4.023,22.457,22.457,0,0,0,.105-2.8v-2.2a22.433,22.433,0,0,0-.105-2.8,4.62,4.62,0,0,0-1.26-2.763ZM34.251,29.616a2.042,2.042,0,0,1-2.022,2.022c-.353.047-.919.076-1.395.085H23.826c-.476-.009-1.042-.038-1.395-.085a2.042,2.042,0,0,1-2.022-2.022,21.109,21.109,0,0,1-.085-2.486V25.587L25.148,28a4.882,4.882,0,0,0,4.359,0l4.823-2.41V27.13a21.135,21.135,0,0,1-.085,2.486Z" transform="translate(-18 -18.01)" fill="#666"/>
    </g>
  </g>
</svg>
