<svg xmlns="http://www.w3.org/2000/svg" width="16.042" height="7.999" viewBox="0 0 16.042 7.999">
  <g id="noun-close-eye-5741486" transform="translate(0.007 -128.329)">
    <path id="Path_2995" data-name="Path 2995" d="M15.774,128.431a.6.6,0,0,0-.827.16,9.2,9.2,0,0,1-3.119,2.89l-.17.092a.583.583,0,0,0-.084.042l-.008.005a7.692,7.692,0,0,1-3.548.87H8.011a7.711,7.711,0,0,1-3.548-.87l-.008-.006a.585.585,0,0,0-.084-.042l-.17-.092a9.2,9.2,0,0,1-3.119-2.89.6.6,0,1,0-.987.666,10.444,10.444,0,0,0,3.213,3.082l-1.292,2.095a.6.6,0,0,0,1.014.625l1.335-2.165a9.184,9.184,0,0,0,1.583.543l-.439,2.179a.6.6,0,0,0,.466.7.612.612,0,0,0,.118.012.6.6,0,0,0,.583-.478l.446-2.212a8.276,8.276,0,0,0,.839.043h.105a8.262,8.262,0,0,0,.843-.043l.446,2.212a.6.6,0,0,0,.583.478.587.587,0,0,0,.118-.012.6.6,0,0,0,.466-.7l-.439-2.179a9.167,9.167,0,0,0,1.58-.542L13,135.059a.6.6,0,0,0,1.014-.625l-1.292-2.095a10.444,10.444,0,0,0,3.213-3.082.6.6,0,0,0-.16-.827Z" transform="translate(0 0)" fill="#8a8b8f"/>
  </g>
</svg>
