<svg xmlns="http://www.w3.org/2000/svg" width="31.382" height="38.664" viewBox="0 0 31.382 38.664">
  <g id="Group_14190" data-name="Group 14190" transform="translate(-264.001 -440)">
    <path id="Path_6425" data-name="Path 6425" d="M-19455.822,2580.174l4.881-1.263,2.775-4.459,2.271,4.965,5.3.757-3.783,4.208.754,4.965-4.545-1.936-5.3,1.936.844-5.386Z" transform="translate(19728.146 -2133.928)" fill="#00cf9e"/>
    <g id="Group_14189" data-name="Group 14189" transform="translate(264.001 440)">
      <path id="Path_6424" data-name="Path 6424" d="M17.935.794a.667.667,0,0,0-.572.323L14.822,5.325,10.028,6.432a.666.666,0,0,0-.354,1.086l1.751,2.018A15.651,15.651,0,0,0,9.086,36.728a.667.667,0,0,0,.077.053,15.7,15.7,0,0,0,17.545-.007.667.667,0,0,0,.086-.06A15.652,15.652,0,0,0,24.439,9.537l1.749-2.009a.666.666,0,0,0-.352-1.086L21.042,5.329,18.507,1.118a.667.667,0,0,0-.572-.324Zm0,1.96,2.109,3.505a.667.667,0,0,0,.422.3l3.988.926-2.686,3.087a.666.666,0,0,0-.16.493l.349,4.074-3.769-1.6a.668.668,0,0,0-.52,0l-3.773,1.592.357-4.074a.666.666,0,0,0-.159-.495L13.075,9.4a.667.667,0,0,0-.056-.064L11.408,7.481,15.4,6.56a.667.667,0,0,0,.422-.306Zm5.588,7.836A14.331,14.331,0,0,1,26.893,35a9.066,9.066,0,0,0-5.935-6.823,5.79,5.79,0,1,0-6.057,0,9.067,9.067,0,0,0-5.937,6.82,14.327,14.327,0,0,1,3.376-24.4l.556.641-.427,4.894a.667.667,0,0,0,.924.671l4.531-1.914,4.531,1.92a.667.667,0,0,0,.926-.671l-.423-4.9Zm-5.591,8.3a4.4,4.4,0,0,1,.385,8.787c-.128-.005-.256-.008-.385-.008s-.256,0-.384.008a4.4,4.4,0,0,1,.384-8.787ZM17.525,29.01c.134.009.27.014.406.014s.272-.005.406-.014a7.723,7.723,0,0,1,7.342,6.856,14.405,14.405,0,0,1-15.5,0,7.724,7.724,0,0,1,7.341-6.858Z" transform="translate(-2.239 -0.794)" fill-rule="evenodd"/>
    </g>
  </g>
</svg>
