<svg xmlns="http://www.w3.org/2000/svg" width="11.5" height="11.5" viewBox="0 0 11.5 11.5">
  <path id="Path_6143" data-name="Path 6143" d="M13.647,4.176H11.618a1.354,1.354,0,0,0-1.353,1.353V7.559a1.354,1.354,0,0,0,1.353,1.353h2.029A1.354,1.354,0,0,0,15,7.559V5.529A1.354,1.354,0,0,0,13.647,4.176Zm0,3.382H11.618V5.529h2.029Zm0,2.029H11.618a1.354,1.354,0,0,0-1.353,1.353v2.029a1.355,1.355,0,0,0,1.353,1.353h2.029A1.355,1.355,0,0,0,15,12.971V10.941A1.354,1.354,0,0,0,13.647,9.588Zm0,3.382H11.618V10.941h2.029ZM8.235,3.5H4.853A1.354,1.354,0,0,0,3.5,4.853V8.235A1.354,1.354,0,0,0,4.853,9.588H8.235A1.354,1.354,0,0,0,9.588,8.235V4.853A1.354,1.354,0,0,0,8.235,3.5Zm0,4.735H4.853V4.853H8.235Zm0,2.029H6.206a1.355,1.355,0,0,0-1.353,1.353v2.029A1.355,1.355,0,0,0,6.206,15H8.235a1.355,1.355,0,0,0,1.353-1.353V11.618A1.355,1.355,0,0,0,8.235,10.265Zm0,3.382H6.206V11.618H8.235Z" transform="translate(-3.5 -3.5)" fill="#666"/>
</svg>
