<svg xmlns="http://www.w3.org/2000/svg" width="12" height="12" viewBox="0 0 12 12">
  <g id="Group_13137" data-name="Group 13137" transform="translate(-611.75 -43.375)">
    <path id="Path_6140" data-name="Path 6140" d="M7.219,3.75a.545.545,0,0,1,.545.545V4.48c.272,0,.561,0,.869,0H10.9c.308,0,.6,0,.869,0V4.3a.545.545,0,1,1,1.091,0v.22c.165.012.32.027.467.046a2.7,2.7,0,0,1,1.644.714A2.7,2.7,0,0,1,15.68,6.92c.02.146.035.3.046.467H3.8c.012-.165.027-.32.046-.467a2.7,2.7,0,0,1,.714-1.644,2.7,2.7,0,0,1,1.644-.714c.146-.02.3-.035.467-.046V4.3A.545.545,0,0,1,7.219,3.75Z" transform="translate(607.986 39.625)"/>
    <path id="Path_6141" data-name="Path 6141" d="M3.75,11.119c0-.308,0-.6,0-.869h12c0,.272,0,.561,0,.869v2.248c0,.658,0,1.188-.039,1.616a2.783,2.783,0,0,1-.327,1.176,2.727,2.727,0,0,1-1,1,2.784,2.784,0,0,1-1.176.327c-.428.039-.958.039-1.616.039H8.619a19.952,19.952,0,0,1-2.427-.085,2.7,2.7,0,0,1-1.644-.714,2.7,2.7,0,0,1-.714-1.644,19.94,19.94,0,0,1-.085-2.427Zm2.4,3.079a.545.545,0,0,1,.545-.545h3.883a.545.545,0,1,1,0,1.091H6.691A.545.545,0,0,1,6.146,14.2Zm.545-2.611a.545.545,0,0,0,0,1.091H8.873a.545.545,0,0,0,0-1.091Z" transform="translate(608 37.852)" fill-rule="evenodd"/>
  </g>
</svg>
