<svg xmlns="http://www.w3.org/2000/svg" width="20.559" height="20.559" viewBox="0 0 20.559 20.559">
  <g id="Group_13844" data-name="Group 13844" transform="translate(-1005.72 -105.999)">
    <path id="Path_6361" data-name="Path 6361" d="M15.956,8.32a.456.456,0,0,0,.456-.456V5.176a.456.456,0,1,0-.911,0V7.864A.456.456,0,0,0,15.956,8.32Z" transform="translate(1000.044 101.279)"/>
    <path id="Path_6362" data-name="Path 6362" d="M15.956,23.33a.456.456,0,0,0-.456.456v2.688a.456.456,0,0,0,.911,0V23.786A.456.456,0,0,0,15.956,23.33Z" transform="translate(1000.044 99.629)"/>
    <path id="Path_6363" data-name="Path 6363" d="M9.912,10.556a.456.456,0,0,0,.645-.644l-1.9-1.9a.456.456,0,0,0-.644.644Z" transform="translate(1000.72 100.999)"/>
    <path id="Path_6364" data-name="Path 6364" d="M21.815,21.17a.456.456,0,0,0-.644.644l1.9,1.9a.456.456,0,1,0,.645-.644Z" transform="translate(999.553 99.832)"/>
    <path id="Path_6365" data-name="Path 6365" d="M8.32,15.956a.456.456,0,0,0-.456-.456H5.176a.456.456,0,1,0,0,.911H7.864A.456.456,0,0,0,8.32,15.956Z" transform="translate(1001 100.323)"/>
    <path id="Path_6366" data-name="Path 6366" d="M26.474,15.5H23.786a.456.456,0,1,0,0,.911h2.688a.456.456,0,1,0,0-.911Z" transform="translate(999.35 100.323)"/>
    <path id="Path_6367" data-name="Path 6367" d="M9.912,21.17l-1.9,1.9a.456.456,0,0,0,.645.644l1.9-1.9a.456.456,0,0,0-.644-.645Z" transform="translate(1000.72 99.832)"/>
    <path id="Path_6368" data-name="Path 6368" d="M21.493,10.689a.458.458,0,0,0,.323-.133l1.9-1.9a.456.456,0,0,0-.644-.644l-1.9,1.9a.456.456,0,0,0,0,.644A.45.45,0,0,0,21.493,10.689Z" transform="translate(999.553 100.999)"/>
    <g id="Group_13843" data-name="Group 13843" transform="translate(1010.954 111.233)">
      <path id="Path_6369" data-name="Path 6369" d="M15.509,20.555a5.046,5.046,0,1,1,5.046-5.046A5.052,5.052,0,0,1,15.509,20.555Zm0-9.181a4.135,4.135,0,1,0,4.135,4.135A4.14,4.14,0,0,0,15.509,11.374Z" transform="translate(-10.463 -10.463)"/>
    </g>
  </g>
</svg>
