<svg xmlns="http://www.w3.org/2000/svg" width="16" height="10.318" viewBox="0 0 16 10.318">
  <path id="Subtraction_67" data-name="Subtraction 67" d="M7.786,9.96a7.643,7.643,0,0,1-4.18-1.283A14.314,14.314,0,0,1-.214,4.8,14.307,14.307,0,0,1,3.606.926,7.643,7.643,0,0,1,7.786-.357,7.643,7.643,0,0,1,11.965.926,14.308,14.308,0,0,1,15.786,4.8a14.313,14.313,0,0,1-3.821,3.875A7.643,7.643,0,0,1,7.786,9.96ZM7.7,2.309a2.578,2.578,0,1,0,2.578,2.578A2.581,2.581,0,0,0,7.7,2.309Z" transform="translate(0.214 0.357)" fill="#8a8b8f"/>
</svg>
