<svg xmlns="http://www.w3.org/2000/svg" width="391.614" height="277.001" viewBox="0 0 391.614 277.001">
  <g id="Group_738" data-name="Group 738" transform="translate(-521 -502)">
    <path id="Subtraction_1" data-name="Subtraction 1" d="M7054.5,13893a117.335,117.335,0,0,1-23.479-2.367,115.85,115.85,0,0,1-41.658-17.529,116.838,116.838,0,0,1-42.208-51.258,115.945,115.945,0,0,1-6.788-21.868,117.636,117.636,0,0,1,0-46.956,115.87,115.87,0,0,1,17.529-41.658,116.838,116.838,0,0,1,51.256-42.209,115.911,115.911,0,0,1,21.869-6.788,117.571,117.571,0,0,1,49.557.563,136.552,136.552,0,0,0,50.036,201.771,116.031,116.031,0,0,1-76.114,28.3Z" transform="translate(-6218 -13114)" fill="#f3f3f1"/>
    <g id="undraw_booked_re_vtod" transform="translate(521 502)">
      <g id="Group_7" data-name="Group 7" transform="translate(175.411 188.712)">
        <path id="Path_149" data-name="Path 149" d="M659.092,670.1a14.806,14.806,0,0,1-1.561-5.85c-.357-3.574-.128-9.6,3-18a36.307,36.307,0,0,0-1.439-28.9l.359-.208a31.922,31.922,0,0,1,3.009,8.523,37.184,37.184,0,0,1-1.54,20.726c-5.909,15.895-1.516,23.419-1.471,23.493Z" transform="translate(-646.665 -611.013)" fill="#f2f2f2"/>
        <circle id="Ellipse_19" data-name="Ellipse 19" cx="2.7" cy="2.7" r="2.7" transform="translate(7.412)" fill="#f2f2f2"/>
        <circle id="Ellipse_20" data-name="Ellipse 20" cx="2.7" cy="2.7" r="2.7" transform="translate(15.927 9.968)" fill="#f2f2f2"/>
        <circle id="Ellipse_21" data-name="Ellipse 21" cx="2.7" cy="2.7" r="2.7" transform="translate(10.112 16.613)" fill="#f2f2f2"/>
        <circle id="Ellipse_22" data-name="Ellipse 22" cx="2.7" cy="2.7" r="2.7" transform="translate(17.173 22.22)" fill="#f2f2f2"/>
        <circle id="Ellipse_23" data-name="Ellipse 23" cx="2.7" cy="2.7" r="2.7" transform="translate(8.035 30.942)" fill="#f2f2f2"/>
        <path id="Path_150" data-name="Path 150" d="M664.671,726.875s-2.7-6.645,5.4-11.629Z" transform="translate(-650.614 -667.691)" fill="#f2f2f2"/>
        <path id="Path_151" data-name="Path 151" d="M642.71,732.916s-1.229-7.067-10.738-7.006Z" transform="translate(-631.972 -673.852)" fill="#f2f2f2"/>
      </g>
      <path id="Path_140" data-name="Path 140" d="M311.14,247.593a10.914,10.914,0,1,1,10.914-10.914A10.914,10.914,0,0,1,311.14,247.593Zm0-21.452a10.538,10.538,0,1,0,10.538,10.538A10.538,10.538,0,0,0,311.14,226.142Z" transform="translate(-264.903 -196.194)" fill="#3f3d56"/>
      <path id="Path_174" data-name="Path 174" d="M573.14,247.593a10.914,10.914,0,1,1,10.914-10.914,10.914,10.914,0,0,1-10.914,10.914Zm0-21.452a10.538,10.538,0,1,0,10.538,10.538,10.538,10.538,0,0,0-10.538-10.538Z" transform="translate(-416.267 -196.194)" fill="#3f3d56"/>
      <path id="Path_146" data-name="Path 146" d="M413.41,217.469H223.283c-3.7.006-6.7,3.712-6.706,8.285V316.4c.005,4.573,3,8.277,6.706,8.285H413.41c3.7-.006,6.7-3.712,6.706-8.285V225.754c-.005-4.573-3-8.277-6.706-8.285Zm5.918,98.929c0,4.035-2.651,7.305-5.917,7.31H223.283c-3.266-.005-5.912-3.275-5.917-7.31V225.754c0-4.035,2.651-7.305,5.917-7.31H413.41c3.266.005,5.912,3.275,5.917,7.31Z" transform="translate(-216.577 -191.402)" fill="#3f3d56"/>
      <rect id="Rectangle_21" data-name="Rectangle 21" width="33.782" height="23.647" transform="translate(13.935 62.525)" fill="#ffe6eb"/>
      <rect id="Rectangle_30" data-name="Rectangle 30" width="33.782" height="23.647" transform="translate(61.23 62.525)" fill="#ffe6eb"/>
      <rect id="Rectangle_31" data-name="Rectangle 31" width="33.782" height="23.647" transform="translate(108.525 62.525)" fill="#ffe6eb"/>
      <rect id="Rectangle_32" data-name="Rectangle 32" width="33.782" height="23.647" transform="translate(155.82 62.525)" fill="#ffe6eb"/>
      <rect id="Rectangle_33" data-name="Rectangle 33" width="33.782" height="23.647" transform="translate(13.935 97.152)" fill="#ffe6eb"/>
      <rect id="Rectangle_34" data-name="Rectangle 34" width="33.782" height="23.647" transform="translate(61.23 97.152)" fill="#ffe6eb"/>
      <rect id="Rectangle_35" data-name="Rectangle 35" width="33.782" height="23.647" transform="translate(108.525 97.152)" fill="#ffe6eb"/>
      <rect id="Rectangle_36" data-name="Rectangle 36" width="33.782" height="23.647" transform="translate(155.82 97.152)" fill="#ffe6eb"/>
      <path id="Path_168" data-name="Path 168" d="M377.316,402.961l-7.975-11.013,2.172-1.573,6.1,8.43,23.359-24,1.921,1.871Z" transform="translate(-304.832 -282.299)"/>
      <path id="Path_176" data-name="Path 176" d="M490.316,320.961l-7.975-11.013,2.172-1.573,6.1,8.43,23.359-24,1.921,1.871Z" transform="translate(-370.115 -234.926)"/>
      <rect id="Rectangle_38" data-name="Rectangle 38" width="0.577" height="40.534" transform="translate(45.804)" fill="#2f2e41"/>
      <rect id="Rectangle_40" data-name="Rectangle 40" width="0.577" height="40.534" transform="translate(156.862)" fill="#2f2e41"/>
      <path id="Path_88" data-name="Path 88" d="M762.009,742.672H601.86a.581.581,0,1,1,0-1.159H762.009a.581.581,0,1,1,0,1.159Z" transform="translate(-438.807 -494.154)" fill="#3f3d56"/>
      <path id="Path_238" data-name="Path 238" d="M266.316,320.961l-7.975-11.013,2.172-1.573,6.1,8.43,23.359-24,1.921,1.871Z" transform="translate(-240.705 -234.926)"/>
      <g id="Group_8" data-name="Group 8" transform="translate(248.322 91.061)">
        <path id="Path_200" data-name="Path 200" d="M868.531,489.853a4.444,4.444,0,0,1,.684-.147l9.248-18.791-2.823-4.232,5.83-5.1,7.329,8.969-14.928,21.725a4.434,4.434,0,1,1-5.341-2.428Z" transform="translate(-839.735 -423.495)" fill="#ffb8b8"/>
        <path id="Path_201" data-name="Path 201" d="M886.473,452.1a1.905,1.905,0,0,1-.429.338l-9.461,5.485a1.9,1.9,0,0,1-2.6-.691q-.04-.068-.073-.14l-4.6-9.722a1.89,1.89,0,0,1,.649-2.384l5.865-3.99a1.9,1.9,0,0,1,2.415.23l8.2,8.226a1.9,1.9,0,0,1,.036,2.647Z" transform="translate(-841.891 -411.41)" fill="#ccc"/>
        <path id="Path_202" data-name="Path 202" d="M924.409,696.35l-5,1.359-7.62-18.622,7.373-2.006Z" transform="translate(-866.543 -547.992)" fill="#ffb8b8"/>
        <path id="Path_203" data-name="Path 203" d="M914.127,721.259l9.634-2.621,1.65,6.064-15.7,4.272a6.286,6.286,0,0,1,4.415-7.716h0Z" transform="translate(-865.211 -572)" fill="#2f2e41"/>
        <path id="Path_204" data-name="Path 204" d="M830.085,704.421h-5.177l-2.463-19.969h7.641Z" transform="translate(-814.923 -552.25)" fill="#ffb8b8"/>
        <path id="Path_205" data-name="Path 205" d="M810.92,728.236H820.9v6.287H804.634A6.286,6.286,0,0,1,810.92,728.236Z" transform="translate(-804.634 -577.545)" fill="#2f2e41"/>
        <circle id="Ellipse_33" data-name="Ellipse 33" cx="10.371" cy="10.371" r="10.371" transform="translate(10.244 2.216)" fill="#ffb8b8"/>
        <path id="Path_206" data-name="Path 206" d="M826.151,588.834h-7.074a1.906,1.906,0,0,1-1.9-1.783c-2.108-33.512-.875-57.551,3.881-75.652a1.984,1.984,0,0,1,.077-.233l.38-.947a1.891,1.891,0,0,1,1.765-1.195h14.548a1.9,1.9,0,0,1,1.443.663l1.976,2.306c.038.045.075.091.109.139,8.91,12.426,16.9,36.719,26.144,69.371a1.894,1.894,0,0,1-1.249,2.33l-7.6,2.433a1.91,1.91,0,0,1-2.291-.985l-19.73-40.921a1.478,1.478,0,0,0-2.8.442l-5.8,42.39A1.907,1.907,0,0,1,826.151,588.834Z" transform="translate(-811.307 -450.901)" fill="#2f2e41"/>
        <path id="Path_207" data-name="Path 207" d="M846.226,463.907h-.06l-17.673-.559a1.894,1.894,0,0,1-1.828-1.67c-2.238-18.133,3.9-22.991,6.649-24.239a1.461,1.461,0,0,0,.85-1.158l.238-1.9a1.894,1.894,0,0,1,.375-.923,21.716,21.716,0,0,1,13.3-7.93,1.9,1.9,0,0,1,2.2,1.532q.008.047.014.094l.356,2.729a1.5,1.5,0,0,0,.3.714c8.977,11.736-1.024,29.064-3.12,32.418h0A1.9,1.9,0,0,1,846.226,463.907Z" transform="translate(-817.084 -402.646)" fill="#ccc"/>
        <path id="Path_239" data-name="Path 239" d="M839.246,523.209l-13.352,2.573-.507-2.633,10.22-1.97-11.878-31.313,2.507-.951Z" transform="translate(-815.666 -439.284)" fill="#6c63ff"/>
        <path id="Path_208" data-name="Path 208" d="M858.323,385.136a41.279,41.279,0,0,0-8.236-8.623,24.477,24.477,0,0,0-8.745-4.626,13.564,13.564,0,0,0-9.7.865c-2.932,1.559-5.965,4.656-5.983,7.976-.006,1.067.266,2.51,1.316,2.326l.3.042,7.6-1.536,3.238,11.239a2.171,2.171,0,0,0,3.521,1.729c.117-.049,1.127-2.315,1.127-2.315a.422.422,0,0,1,.728-.122l.6.75a.845.845,0,0,0,.985.253l12.4-5.177c.571-.239,1.21-.549,1.375-1.146A2.059,2.059,0,0,0,858.323,385.136Z" transform="translate(-816.782 -371.381)" fill="#2f2e41"/>
        <path id="Path_211" data-name="Path 211" d="M859.881,513.777a4.536,4.536,0,0,0,.594-6.93l3.282-39.639-9.773,1.345-.186,38.512a4.561,4.561,0,0,0,6.081,6.714Z" transform="translate(-832.388 -426.742)" fill="#ffb8b8"/>
        <path id="Path_212" data-name="Path 212" d="M863.474,457.576a1.907,1.907,0,0,1-.541-.078l-10.492-3.086a1.9,1.9,0,0,1-1.287-2.359q.022-.076.051-.15l3.883-10.031a1.89,1.89,0,0,1,2.176-1.171l6.932,1.507a1.9,1.9,0,0,1,1.5,1.909l-.323,11.609a1.9,1.9,0,0,1-1.9,1.849Z" transform="translate(-831.465 -411.403)" fill="#ccc"/>
      </g>
    </g>
  </g>
</svg>
