<svg xmlns="http://www.w3.org/2000/svg" width="23" height="23" viewBox="0 0 23 23">
  <g id="Group_12824" data-name="Group 12824" transform="translate(16011 17662)">
    <circle id="Ellipse_1622" data-name="Ellipse 1622" cx="1.5" cy="1.5" r="1.5" transform="translate(-16001 -17656)" fill="#fff"/>
    <path id="Path_6025" data-name="Path 6025" d="M22.312,41H36.687A4.312,4.312,0,0,0,41,36.687V27.5a5.2,5.2,0,0,0-2.271-4.312l-6.3-4.28a5.2,5.2,0,0,0-5.865,0l-6.3,4.291A5.2,5.2,0,0,0,18,27.509v9.178A4.312,4.312,0,0,0,22.312,41Zm5.031-2.875V33.453a.719.719,0,0,1,.719-.719h2.875a.719.719,0,0,1,.719.719v4.672ZM20.875,27.5a2.332,2.332,0,0,1,1.017-1.926l6.3-4.291a2.322,2.322,0,0,1,2.623,0l6.3,4.291A2.332,2.332,0,0,1,38.125,27.5v9.189a1.438,1.438,0,0,1-1.437,1.438H34.531V33.453a3.594,3.594,0,0,0-3.594-3.594H28.062a3.594,3.594,0,0,0-3.594,3.594v4.672H22.312a1.438,1.438,0,0,1-1.437-1.437Z" transform="translate(-16029 -17680)" fill="#fff"/>
  </g>
</svg>
