<svg xmlns="http://www.w3.org/2000/svg" width="15.705" height="18.4" viewBox="0 0 15.705 18.4">
  <path id="Ice" d="M34.716,18.161a.312.312,0,0,0-.432-.094l-2.993,1.919.062-2.011a.312.312,0,0,0-.3-.322h-.01a.313.313,0,0,0-.312.3L30.653,20.4l-3.2,2.053v-3.8l2.012-1.38a.313.313,0,0,0-.354-.516l-1.658,1.138V14.332a.313.313,0,0,0-.625,0v3.555L25.169,16.75a.313.313,0,1,0-.354.516l2.012,1.38v3.8l-3.2-2.053-.075-2.439a.313.313,0,0,0-.312-.3h-.01a.312.312,0,0,0-.3.322l.062,2.011L20,18.067a.313.313,0,1,0-.338.526l2.993,1.919-1.853.782a.313.313,0,1,0,.243.576l2.248-.949,3.272,2.1-3.271,2.1-2.248-.949a.313.313,0,1,0-.243.576l1.853.782-2.993,1.919a.313.313,0,1,0,.338.526l2.993-1.919-.062,2.01a.312.312,0,0,0,.3.322h.01a.312.312,0,0,0,.312-.3l.076-2.439,3.2-2.053v3.8l-2.012,1.38a.313.313,0,1,0,.354.516l1.659-1.137v3.555a.313.313,0,0,0,.625,0V28.152l1.658,1.138a.313.313,0,0,0,.354-.516l-2.012-1.38v-3.8l3.2,2.053.076,2.439a.312.312,0,0,0,.312.3h.01a.312.312,0,0,0,.3-.322l-.062-2.01,2.993,1.919a.313.313,0,1,0,.338-.526l-2.993-1.919,1.853-.782a.313.313,0,0,0-.243-.576l-2.248.949-3.271-2.1,3.272-2.1,2.248.949a.313.313,0,1,0,.243-.576l-1.853-.782,2.993-1.919A.312.312,0,0,0,34.716,18.161Z" transform="translate(-19.288 -13.819)" fill="#00cf9e" stroke="#00cf9e" stroke-width="0.4"/>
</svg>
