<svg xmlns="http://www.w3.org/2000/svg" width="23.961" height="26.666" viewBox="0 0 23.961 26.666">
  <path id="Path_6031" data-name="Path 6031" d="M15.826,2.91A11.981,11.981,0,0,0,3.86,14.8v6.865a1.1,1.1,0,0,0,1.1,1.1H6.9a7.894,7.894,0,0,0,7.791,6.806h1.735a1.1,1.1,0,1,0,0-2.205H14.694a5.7,5.7,0,0,1-5.586-4.6h1.705a1.1,1.1,0,0,0,1.1-1.1V14.8a1.117,1.117,0,0,0-1.1-1.1H6.139a9.746,9.746,0,0,1,19.375,0H20.839a1.117,1.117,0,0,0-1.1,1.1v6.865a1.1,1.1,0,0,0,1.1,1.1h5.88a1.1,1.1,0,0,0,1.1-1.1V14.8a11.981,11.981,0,0,0-12-11.892ZM9.711,20.683H6.065V15.964H9.711Zm15.876,0H21.941V15.964h3.646Z" transform="translate(-3.86 -2.91)" fill="#fff"/>
</svg>
