<svg xmlns="http://www.w3.org/2000/svg" width="28.454" height="32.106" viewBox="0 0 28.454 32.106">
  <g id="Group_12826" data-name="Group 12826" transform="translate(16031.415 17596)">
    <path id="Path_6029" data-name="Path 6029" d="M42.037,39.631a14.226,14.226,0,1,0-2.605,1.762L43.691,46.3a1.2,1.2,0,0,0,.906.381h.109a1.812,1.812,0,0,0,1.577-1.359,1.219,1.219,0,0,0-.249-1.069Zm-9.22,2.043A12.912,12.912,0,1,1,45.73,28.762,12.912,12.912,0,0,1,32.818,41.674Z" transform="translate(-16050 -17610.574)" fill="#fff"/>
    <g id="Group_12827" data-name="Group 12827" transform="translate(-16023.026 -17590.027)">
      <circle id="Ellipse_1623" data-name="Ellipse 1623" cx="3.26" cy="3.26" r="3.26" transform="translate(2.428)" fill="#fff"/>
      <path id="Path_6030" data-name="Path 6030" d="M42.939,44.181h-.451l-2.734,4.588-.578-3.635.746-1.2H37.694l.746,1.2-.578,3.635-2.72-4.588h-.464a1.565,1.565,0,0,0-1.558,1.558v4.839a1.565,1.565,0,0,0,1.558,1.558h8.254a1.565,1.565,0,0,0,1.558-1.558V45.742A1.565,1.565,0,0,0,42.939,44.181Z" transform="translate(-33.12 -36.484)" fill="#fff"/>
    </g>
  </g>
</svg>
