<svg xmlns="http://www.w3.org/2000/svg" width="27.016" height="27" viewBox="0 0 27.016 27">
  <path id="Path_6037" data-name="Path 6037" d="M37.337,18.485a35.648,35.648,0,0,0-11.72,0,8.7,8.7,0,0,0-7.172,7.172,35.648,35.648,0,0,0,0,11.72,8.7,8.7,0,0,0,7.172,7.172,36.9,36.9,0,0,0,11.72-.034,8.7,8.7,0,0,0,7.172-7.172,36.15,36.15,0,0,0-.017-11.7A8.7,8.7,0,0,0,37.337,18.485ZM41.18,36.807a5.312,5.312,0,0,1-.641,1.78l-4.29-4.274a5.906,5.906,0,0,0-5.193-8.72,1.687,1.687,0,1,0,0,3.375A2.531,2.531,0,1,1,28.524,31.5a1.687,1.687,0,1,0-3.375,0,5.906,5.906,0,0,0,8.716,5.2l4.13,4.13a5.324,5.324,0,0,1-1.211.354A32.942,32.942,0,0,1,26.17,41.2a5.328,5.328,0,0,1-4.4-4.4,32.273,32.273,0,0,1,0-10.61,5.328,5.328,0,0,1,4.4-4.4,32.273,32.273,0,0,1,10.61,0,5.328,5.328,0,0,1,4.4,4.4,33.593,33.593,0,0,1,0,10.614Z" transform="translate(-17.961 -18.001)" fill="#fff"/>
</svg>
