<svg xmlns="http://www.w3.org/2000/svg" width="26.085" height="24.2" viewBox="0 0 26.085 24.2">
  <path id="Path_6028" data-name="Path 6028" d="M30.824,26.9,22.1,22.863c-.08-.04-.123-.057-.183-.02l-.257.18a.1.1,0,0,0-.057.114V26.3c-.046,0-.085-.023-.131-.023-.2,0-3.942-.046-5.581-3.037a8.982,8.982,0,0,1-1.127,2.843,10.39,10.39,0,0,0,6.708,2.775,1.064,1.064,0,0,0,.131-.029v3.225a.113.113,0,0,0,.057.119l.262.183c.057.034.1.017.18-.026l8.726-4.062A.274.274,0,0,0,31,27.991v-.812A.277.277,0,0,0,30.824,26.9Zm0-14.624L22.1,8.214c-.08-.038-.123-.058-.183-.019l-.257.178c-.057.038-.057.061-.057.12v3.221a1.047,1.047,0,0,0-.131-.025c-3.087,0-8.921,1.863-8.921,8.924,0,6.114-5.695,6.336-6.348,6.342a1.289,1.289,0,0,0,.007,2.578c.087,0,8.92-.1,8.92-8.923,0-6.115,5.688-6.34,6.346-6.343a.957.957,0,0,0,.128-.025V17.4h0a.11.11,0,0,0,.057.119l.262.178c.057.04.1.02.18-.021l8.726-4.034A.276.276,0,0,0,31,13.362v-.811A.272.272,0,0,0,30.824,12.273ZM6.2,13.59c.531,0,4.412.148,5.831,3.515a8.77,8.77,0,0,1,1.4-2.711,9.356,9.356,0,0,0-7.226-3.386A1.291,1.291,0,0,0,6.2,13.59Z" transform="translate(-4.915 -8.173)" fill="#fff"/>
</svg>
