<svg xmlns="http://www.w3.org/2000/svg" width="30.308" height="44.99" viewBox="0 0 30.308 44.99">
  <g id="Group_14192" data-name="Group 14192" transform="translate(-261.999 -611.01)">
    <path id="Path_6426" data-name="Path 6426" d="M31.589,41.653a.735.735,0,0,0,1.313,0c1.313-2.272,7.524-13.28,10.048-17.724A12.32,12.32,0,0,0,32.2,5.6a12.208,12.208,0,0,0-12.22,12.27,12.4,12.4,0,0,0,1.565,6.009C23.157,26.808,31.589,41.6,31.589,41.653Zm.656-34.538A10.818,10.818,0,0,1,43.052,17.921a10.444,10.444,0,0,1-1.363,5.251c-2.525,4.544-2.676,4.7-9.442,16.663C30.327,36.5,24.874,26.858,22.8,23.223a10.444,10.444,0,0,1-1.363-5.251A10.894,10.894,0,0,1,32.246,7.115Zm-3.03,10.907a3.03,3.03,0,1,1,3.03,3.03A3.039,3.039,0,0,1,29.216,18.022Z" transform="translate(244.986 605.41)"/>
    <path id="Path_6427" data-name="Path 6427" d="M23.258,44.582a.909.909,0,1,1,.909-.909A.937.937,0,0,1,23.258,44.582Zm-2.525,0h-.151a.872.872,0,1,1,1.01-.707A.912.912,0,0,1,20.733,44.582Zm4.544,5.1a.909.909,0,1,1-.909-.909A.976.976,0,0,1,25.278,49.682Zm-2.575,0a.909.909,0,1,1-.909-.909A.976.976,0,0,1,22.7,49.682Zm5.1,0a.909.909,0,1,1-.909-.909A.976.976,0,0,1,27.8,49.682Zm-2.02-5.1a.909.909,0,1,1,.909-.909A.875.875,0,0,1,25.782,44.582Zm2.525,0a.909.909,0,1,1,.909-.909A.875.875,0,0,1,28.307,44.582Zm-1.616-6.665a.909.909,0,1,1-.909.909A.939.939,0,0,1,26.691,37.916Zm-2.525,0a.909.909,0,1,1-.909.909A.905.905,0,0,1,24.167,37.916Zm-2.575,0a.909.909,0,1,1-.909.909A.976.976,0,0,1,21.591,37.916Zm-2.676,5.049a.984.984,0,0,1-.858-.606.878.878,0,1,1,1.111.555A2.187,2.187,0,0,1,18.915,42.966Zm-.252-3.838a.9.9,0,0,1,1.414,1.111.917.917,0,0,1-.707.3.759.759,0,0,1-.555-.2A.835.835,0,0,1,18.663,39.128ZM47.6,47.005h-.151a.869.869,0,0,1-.858-.707.872.872,0,1,1,1.01.707Zm-4.544,2.676a.909.909,0,1,1-.909-.909A.939.939,0,0,1,43.052,49.682Zm-2.02-5.1a.909.909,0,0,1,0-1.818.864.864,0,0,1,.858.909A.811.811,0,0,1,41.032,44.582Zm-10.7,5.1a.909.909,0,1,1-.909-.909A.976.976,0,0,1,30.327,49.682Zm10.2,0a.909.909,0,1,1-.909-.909A.976.976,0,0,1,40.527,49.682Zm5.5-4.7a1.474,1.474,0,0,1-.454-.1.96.96,0,1,1,.454.1Zm1.565,4.09a.819.819,0,0,1-.707.353.864.864,0,1,1,.5-1.565A.874.874,0,0,1,47.6,49.076Zm-2.02.606a.9.9,0,0,1-.858.909h0a.931.931,0,0,1-.909-.858.9.9,0,0,1,.858-.909A.864.864,0,0,1,45.576,49.682Zm-7.069-5.1a.909.909,0,1,1,.909-.909A.937.937,0,0,1,38.507,44.582Zm5.049,0a.909.909,0,1,1,.909-.909A.875.875,0,0,1,43.556,44.582Zm-8.13,5.1a.909.909,0,1,1-.909-.909A.976.976,0,0,1,35.427,49.682Zm-4.544-5.1a.909.909,0,1,1,.909-.909A.937.937,0,0,1,30.882,44.582Zm2.525,0a.909.909,0,1,1,.909-.909A.875.875,0,0,1,33.407,44.582Zm4.544,5.1a.909.909,0,1,1-.909-.909A.976.976,0,0,1,37.952,49.682Zm-5.049,0a.909.909,0,1,1-.909-.909A.976.976,0,0,1,32.9,49.682Zm3.03-5.1a.909.909,0,1,1,.909-.909A.875.875,0,0,1,35.932,44.582Zm-15.8,4.948v.353a.185.185,0,0,1-.05.151c0,.05-.05.1-.1.151s-.05.1-.1.151-.1.1-.151.1c-.05.05-.1.05-.151.1-.05,0-.1.05-.151.05h-.3c-.05,0-.1-.05-.151-.05s-.1-.05-.151-.1-.1-.05-.151-.1l-.151-.151c-.05-.05-.05-.1-.1-.151,0-.05-.05-.1-.05-.151v-.2a.836.836,0,0,1,.252-.606c.05-.05.1-.1.151-.1.05-.05.1-.05.151-.1a.186.186,0,0,1,.151-.05.431.431,0,0,1,.353,0,.185.185,0,0,1,.151.05c.05,0,.1.05.151.1s.1.05.151.1.05.1.1.151.05.1.1.151A.185.185,0,0,1,20.127,49.53ZM45.475,38.977v-.3c0-.05.05-.1.05-.151.05-.05.05-.1.1-.151s.05-.1.1-.151.1-.05.151-.1.1-.05.151-.1c.05,0,.1-.05.151-.05h.353c.05,0,.1.05.151.05s.1.05.151.1.1.05.151.1.1.1.1.151c.05.05.05.1.1.151,0,.05.05.1.05.151v.3a.185.185,0,0,1-.05.151c0,.05-.05.1-.1.151s-.05.1-.1.151-.1.05-.151.1-.1.05-.151.1c-.05,0-.1.05-.151.05h-.3c-.05,0-.1-.05-.151-.05s-.1-.05-.151-.1-.1-.05-.151-.1-.1-.1-.1-.151c-.05-.05-.05-.1-.1-.151C45.475,39.078,45.475,39.027,45.475,38.977Zm-1.414-1.06a.909.909,0,1,1-.909.909A.905.905,0,0,1,44.061,37.916Zm-6.817,0a.909.909,0,1,1-.909.909A.905.905,0,0,1,37.245,37.916Zm2.272,0a.909.909,0,1,1-.909.909A.905.905,0,0,1,39.517,37.916Zm2.272,0a.909.909,0,1,1-.909.909A.905.905,0,0,1,41.789,37.916Z" transform="translate(243.986 605.41)"/>
    <g id="Ellipse_2076" data-name="Ellipse 2076" transform="translate(271 618)" fill="#00cf9e" stroke="#000" stroke-width="1">
      <circle cx="6" cy="6" r="6" stroke="none"/>
      <circle cx="6" cy="6" r="5.5" fill="none"/>
    </g>
  </g>
</svg>
