<svg xmlns="http://www.w3.org/2000/svg" width="145.543" height="53.54" viewBox="0 0 145.543 53.54">
  <g id="Group_13841" data-name="Group 13841" transform="translate(-152.492 -35.094)">
    <g id="Group_181" data-name="Group 181" transform="translate(154 35.684)">
      <path id="Subtraction_98" data-name="Subtraction 98" d="M19678.363,20269.852l0,0a9.661,9.661,0,0,1-4.146-2.193,9.788,9.788,0,0,1-2.207-3.031,11.118,11.118,0,0,1-1.027-3.852,21.946,21.946,0,0,1-.244-3.881,33.316,33.316,0,0,1,.482-3.672,12.919,12.919,0,0,1,2.494-4.645,10.284,10.284,0,0,1,3.133-2.473,11.07,11.07,0,0,1,2.4-.881c-1.242-3.322-4.535-11.166-8.271-12.244l-.008.014a50.518,50.518,0,0,1-4.447,5.205,26.742,26.742,0,0,1-4.24,3.588,8.336,8.336,0,0,1-4.4,1.635,4.136,4.136,0,0,1-.982-.119,23.349,23.349,0,0,0,4.379-2.795,40.35,40.35,0,0,0,9.072-10.187,10.449,10.449,0,0,1,3.824,2.707,17.832,17.832,0,0,1,3.084,4.508,28.138,28.138,0,0,1,2.355,7.613,9.171,9.171,0,0,1,1.8-.2,1.271,1.271,0,0,1,.15.006,8.79,8.79,0,0,1,4.662,1.311,10.4,10.4,0,0,1,2.957,2.84,13.894,13.894,0,0,1,2,4.115,21.341,21.341,0,0,1,.529,4.109,22.049,22.049,0,0,1-.281,3.412.16.16,0,0,0,0,.031,13.123,13.123,0,0,1-1.881,5.246,8.579,8.579,0,0,1-2.758,2.7,8.149,8.149,0,0,1-2.5.994,6.052,6.052,0,0,1-1.082.141,2.411,2.411,0,0,0,.2-1.48,1.036,1.036,0,0,0-.326-.6c-.055-.039-.07-.07-.074-.09a.033.033,0,0,1,0-.033,1.968,1.968,0,0,0-.422-2.441.154.154,0,0,0-.025-.025c-.016-.014-.021-.02-.021-.025v0l.006,0,.035,0a.618.618,0,0,0,.137-.01,4.106,4.106,0,0,0,3.287-2.457,3.728,3.728,0,0,0,.2-1.777l0-.006-.02.006a31.752,31.752,0,0,1-5.082.516,30.774,30.774,0,0,1-5.088-.518h-.01a3.907,3.907,0,0,0,3.154,4.2c.082.008.133.02.133.029a1.168,1.168,0,0,0-.77.631,3.091,3.091,0,0,0,.123,2.049c.006.035-.033.094-.117.168a.04.04,0,0,1-.014.012.019.019,0,0,1-.01.008.033.033,0,0,0-.012.012,1.857,1.857,0,0,0-.133,1.836Zm2.914-20.793a6.21,6.21,0,0,0-4.787,2.564,7.275,7.275,0,0,0-.711,2.111,11.443,11.443,0,0,0-.256,2.93,27.953,27.953,0,0,0,5.754.713,26.871,26.871,0,0,0,5.7-.711l.006,0v-.01a13.984,13.984,0,0,0-.025-1.934,5.352,5.352,0,0,0-3.352-5.1,5.619,5.619,0,0,0-2.213-.564Zm115.027,17.643a6.708,6.708,0,0,1-4.771-1.572,6.048,6.048,0,0,1-1.664-4.6v-15.1h5v4.191h4.254v3.836h-4.254v7.01a2.372,2.372,0,0,0,.545,1.678,2.009,2.009,0,0,0,1.566.6,3.434,3.434,0,0,0,2.045-.641l1.313,3.52a5.107,5.107,0,0,1-1.807.814A8.84,8.84,0,0,1,19796.3,20266.7Zm-17.219,0a16.776,16.776,0,0,1-4.187-.529,10.9,10.9,0,0,1-3.266-1.328l1.664-3.586a10.281,10.281,0,0,0,2.781,1.2,11.766,11.766,0,0,0,3.2.467c2.1,0,3.168-.529,3.168-1.572a1.113,1.113,0,0,0-.863-1.053,12.634,12.634,0,0,0-2.656-.543,25.766,25.766,0,0,1-3.49-.738,5.426,5.426,0,0,1-2.381-1.471,4.158,4.158,0,0,1-1.006-3.012,4.681,4.681,0,0,1,.939-2.895,6.105,6.105,0,0,1,2.754-1.969,11.856,11.856,0,0,1,4.271-.7,17.089,17.089,0,0,1,3.633.4,10.342,10.342,0,0,1,2.992,1.1l-1.664,3.557a9.974,9.974,0,0,0-4.961-1.283,5.039,5.039,0,0,0-2.4.449,1.321,1.321,0,0,0-.8,1.154,1.147,1.147,0,0,0,.865,1.119,15.252,15.252,0,0,0,2.752.605,31.121,31.121,0,0,1,3.453.752,5.229,5.229,0,0,1,2.336,1.455,4.156,4.156,0,0,1,.992,2.945,4.572,4.572,0,0,1-.957,2.85,6.185,6.185,0,0,1-2.8,1.938A12.549,12.549,0,0,1,19779.086,20266.7Zm-56.961,0a6.7,6.7,0,0,1-4.766-1.572,6.048,6.048,0,0,1-1.664-4.6v-15.1h4.99v4.191h4.258v3.836h-4.258v7.01a2.392,2.392,0,0,0,.545,1.678,2.016,2.016,0,0,0,1.572.6,3.434,3.434,0,0,0,2.045-.641l1.313,3.52a5.107,5.107,0,0,1-1.807.814A9.023,9.023,0,0,1,19722.125,20266.7Zm-23.131-.258h0l-4.992,0v-17.215h4.766v2.02a6.716,6.716,0,0,1,2.467-1.684,8.607,8.607,0,0,1,3.23-.59,7.133,7.133,0,0,1,5.168,1.918,7.649,7.649,0,0,1,1.969,5.7v9.852l-4.994,0v-9.086a4.505,4.505,0,0,0-.9-3.057,3.278,3.278,0,0,0-2.588-1.008,3.961,3.961,0,0,0-3.008,1.17,4.853,4.853,0,0,0-1.119,3.469v8.514Zm41.18,0h-5.184v-13.664a8.563,8.563,0,0,1,2.707-6.721c1.793-1.588,4.338-2.395,7.564-2.395a15.9,15.9,0,0,1,3.617.4,10,10,0,0,1,2.945,1.17l-1.6,4.1a8.334,8.334,0,0,0-4.609-1.248,6.156,6.156,0,0,0-4.064,1.166,4.347,4.347,0,0,0-1.379,3.5v1.379h9.219v.309l-3.031,3.848h-6.187v8.16Z" transform="translate(-19656.898 -20230.316)" fill="#fff" stroke="rgba(0,0,0,0)" stroke-width="1"/>
      <g id="Group_177" data-name="Group 177" transform="translate(89.215 17.643)">
        <path id="Union_127" data-name="Union 127" d="M.4,21.841s1.123-2.265,2.005-2.67L0,13.671l2.406-2.993,4.331,9.141H2.887s-1.363,1.132-1.123,1.7c.13.3-.276.375-.678.375A5.249,5.249,0,0,1,.4,21.841ZM2.727,10.112l4.56-5.765A9.889,9.889,0,0,1,8.48,2.891,9.768,9.768,0,0,1,24.415,6.027a9.916,9.916,0,0,1-2.1,10.82,9.75,9.75,0,0,1-3.11,2.115,9.653,9.653,0,0,1-3.809.775q-.136,0-.271,0L7.3,19.819Zm7.306-.084A4.577,4.577,0,1,0,14.61,5.412,4.6,4.6,0,0,0,10.033,10.028Z" transform="translate(0 0)" fill="#57d500" opacity="0.99"/>
      </g>
      <path id="Path_584" data-name="Path 584" d="M5789.9-3810.127s-5.287-2.3-9.884-9.54c0,0-5.746,1.839-7.011,12.3,0,0,2.988-9.31,6.551-10.345C5779.551-3817.713,5785.758-3809.092,5789.9-3810.127Z" transform="translate(-5746.794 3824.106)" fill="#57d500"/>
    </g>
    <g id="Group_219" data-name="Group 219" transform="translate(169.034 80.053)">
      <g id="Group_218" data-name="Group 218" transform="translate(0 -0.001)">
        <text id="Profitability" transform="translate(0 6.582)" fill="#a7a7a7" font-size="6" font-family="Sen-Regular, Sen" letter-spacing="0.02em"><tspan x="0" y="0">Profitability</tspan></text>
        <text id="Productivity" transform="translate(47.189 6)" fill="#a7a7a7" font-size="6" font-family="Sen-Regular, Sen" letter-spacing="0.02em"><tspan x="0" y="0">Productivity</tspan></text>
        <text id="Perfection" transform="translate(94.961 6)" fill="#a7a7a7" font-size="6" font-family="Sen-Regular, Sen" letter-spacing="0.02em"><tspan x="0" y="0">Perfection</tspan></text>
      </g>
      <circle id="Ellipse_112" data-name="Ellipse 112" cx="1" cy="1" r="1" transform="translate(40.966 2.946)" fill="#ababab"/>
      <circle id="Ellipse_113" data-name="Ellipse 113" cx="1" cy="1" r="1" transform="translate(87.966 2.946)" fill="#ababab"/>
    </g>
  </g>
</svg>
