<svg xmlns="http://www.w3.org/2000/svg" width="36.276" height="34.76" viewBox="0 0 36.276 34.76">
  <g id="Group_14184" data-name="Group 14184" transform="translate(-970.2 -271.2)">
    <path id="Union_1380" data-name="Union 1380" d="M6.092,10.593c.012-.492.041-.959.084-1.4A10.375,10.375,0,0,1,0,.542a11.628,11.628,0,0,1,10.3,1.72c.059.043.115.086.17.13.109.062.221.133.34.213.15-.121.309-.243.471-.365A11.619,11.619,0,0,1,21.588.524a10.379,10.379,0,0,1-6.379,8.735c0,.075,0,.115,0,.115a2.353,2.353,0,0,1-.514.387c1.209,6.354-3.744,10.382-3.744,10.382A11.354,11.354,0,0,1,6.092,10.593Z" transform="translate(977.761 283.357)" fill="#00cf9e"/>
    <path id="Path_6419" data-name="Path 6419" d="M37.5,21.867c.037-.369.057-.743.057-1.123a11.383,11.383,0,0,0-22.765,0c0,.379.021.754.057,1.123A11.373,11.373,0,1,0,26.174,41.5,11.373,11.373,0,1,0,37.5,21.867Zm-21.97-1.122a10.644,10.644,0,0,1,21.289,0c0,.272-.021.539-.041.806a11.3,11.3,0,0,0-10.6,1.224,11.3,11.3,0,0,0-10.6-1.223C15.55,21.285,15.529,21.017,15.529,20.745ZM30.363,32.14a10.621,10.621,0,0,1-4.189,8.444,10.623,10.623,0,0,1-4.19-8.444c0-.272.021-.539.041-.807a11.236,11.236,0,0,0,8.3,0C30.342,31.6,30.363,31.868,30.363,32.14Zm-4.189-.751a10.575,10.575,0,0,1-4.062-.81A10.631,10.631,0,0,1,26.174,23.7a10.636,10.636,0,0,1,4.062,6.884A10.557,10.557,0,0,1,26.174,31.389Zm-4.758-1.136A10.655,10.655,0,0,1,15.657,22.3a10.593,10.593,0,0,1,9.891.938A11.38,11.38,0,0,0,21.415,30.253ZM26.8,23.244a10.595,10.595,0,0,1,9.89-.939,10.656,10.656,0,0,1-5.759,7.948A11.371,11.371,0,0,0,26.8,23.244ZM19.719,42.785a10.636,10.636,0,0,1-4.758-20.153A11.4,11.4,0,0,0,21.3,31.017c-.036.369-.057.743-.057,1.123a11.361,11.361,0,0,0,4.3,8.9A10.578,10.578,0,0,1,19.719,42.785Zm12.91,0A10.578,10.578,0,0,1,26.8,41.037a11.363,11.363,0,0,0,4.3-8.9c0-.379-.02-.754-.057-1.123a11.4,11.4,0,0,0,6.343-8.386,10.636,10.636,0,0,1-4.758,20.154Z" transform="translate(962.164 262.138)" stroke="#000" stroke-width="0.6"/>
  </g>
</svg>
