<svg xmlns="http://www.w3.org/2000/svg" width="18.667" height="15.981" viewBox="0 0 18.667 15.981">
  <g id="Group_12835" data-name="Group 12835" transform="translate(-1052.666 -59.664)">
    <g id="Group_12834" data-name="Group 12834" transform="translate(1052.666 59.664)">
      <g id="Path_6041" data-name="Path 6041" transform="translate(-18 -18.01)" fill="#8a8b8f">
        <path d="M 27.33348083496094 33.74057388305664 C 24.51898002624512 33.74057388305664 22.34373092651367 33.72399520874023 22.16122055053711 33.70115661621094 C 21.45322036743164 33.60675430297852 20.41113090515137 33.38071441650391 19.54222106933594 32.51179504394531 C 18.67332077026367 31.64290618896484 18.4472713470459 30.60080528259277 18.35283088684082 29.89254570007324 C 18.24999046325684 29.11838531494141 18.24999046325684 28.19717597961426 18.24999046325684 27.13049507141113 L 18.24999046325684 24.93352508544922 C 18.24999046325684 23.86685562133789 18.24999046325684 22.94564628601074 18.35284042358398 22.17136573791504 C 18.4472713470459 21.46321487426758 18.67332077026367 20.42111587524414 19.54222106933594 19.55222511291504 C 20.4111213684082 18.68331527709961 21.45322036743164 18.457275390625 22.16147994995117 18.36284637451172 C 22.93564033508301 18.25999641418457 23.85685157775879 18.25999641418457 24.92352104187012 18.25999641418457 L 29.74636077880859 18.25999641418457 C 30.81303024291992 18.25999641418457 31.7342414855957 18.25999641418457 32.50852966308594 18.36285591125488 C 33.19448852539062 18.45431900024414 34.19376754760742 18.66923904418945 35.04549407958984 19.47243118286133 L 35.12474060058594 19.55222511291504 C 35.99456024169922 20.42204475402832 36.22011184692383 21.46358489990234 36.31410980224609 22.17134475708008 C 36.41696929931641 22.94564628601074 36.41696929931641 23.86685562133789 36.41696929931641 24.93352508544922 L 36.41696929931641 27.13049507141113 C 36.41696929931641 28.19716644287109 36.41696929931641 29.11838531494141 36.31410980224609 29.89266586303711 C 36.21969985961914 30.60079574584961 35.99367141723633 31.64286613464355 35.12474060058594 32.51179504394531 C 34.25582122802734 33.38071441650391 33.21374130249023 33.60675430297852 32.50548934936523 33.70118713378906 C 32.3232421875 33.72399520874023 30.14799118041992 33.74057388305664 27.33348083496094 33.74057388305664 Z M 20.07534027099609 25.18267631530762 L 20.07534027099609 25.58707618713379 L 20.07534027099609 27.1305046081543 C 20.07534027099609 28.13195610046387 20.07534027099609 28.99683570861816 20.16213035583496 29.64929580688477 C 20.26076126098633 30.3778247833252 20.46086120605469 30.84646606445312 20.83129119873047 31.21690559387207 C 21.20173072814941 31.58734512329102 21.67038154602051 31.78743553161621 22.39834022521973 31.8859748840332 C 22.79122161865234 31.93792533874512 23.39117050170898 31.96487617492676 23.82189178466797 31.97281455993652 L 30.83463096618652 31.97285461425781 C 31.26994132995605 31.96487617492676 31.8698902130127 31.93792533874512 32.26203155517578 31.88607597351074 C 32.99074935913086 31.78743553161621 33.45940017700195 31.58734512329102 33.82984161376953 31.21690559387207 C 34.20027160644531 30.84645462036133 34.40037155151367 30.37780570983887 34.49892044067383 29.64986610412598 L 34.53730010986328 29.36632537841797 L 34.52435684204102 29.36632537841797 C 34.5799446105957 28.75307464599609 34.57995223999023 27.99241828918457 34.57995223999023 27.13049507141113 L 34.57995223999023 25.58707618713379 L 34.57995223999023 25.18267631530762 L 34.21820068359375 25.36344528198242 L 29.39537048339844 27.77340507507324 C 28.75534057617188 28.09202575683594 28.04022026062012 28.26053619384766 27.32765007019043 28.26053619384766 C 26.61507034301758 28.26053619384766 25.89995002746582 28.09202575683594 25.25960159301758 27.77323532104492 L 20.43708992004395 25.36344528198242 L 20.07534027099609 25.18267631530762 Z" stroke="none"/>
        <path d="M 24.92352104187012 18.50999450683594 C 23.86572074890137 18.50999450683594 22.95218086242676 18.50999450683594 22.19451904296875 18.61064529418945 C 21.52227020263672 18.70028686523438 20.53425979614258 18.91373443603516 19.71899032592773 19.72899627685547 C 18.90370941162109 20.54428482055664 18.69026947021484 21.53228569030762 18.60068130493164 22.20429611206055 C 18.49999237060547 22.96218490600586 18.49999237060547 23.87572479248047 18.49999237060547 24.93352508544922 L 18.49999237060547 27.13049507141113 C 18.49999237060547 28.18829536437988 18.49999237060547 29.10183525085449 18.60063934326172 29.85950469970703 C 18.69026947021484 30.53174591064453 18.90370178222656 31.51973533630371 19.71899032592773 32.33502578735352 C 20.53267669677734 33.14870452880859 21.51839828491211 33.36290740966797 22.19033813476562 33.45282745361328 C 22.42108154296875 33.474365234375 24.6281681060791 33.49057769775391 27.33348083496094 33.49057769775391 C 30.03896903991699 33.49057769775391 32.24613952636719 33.474365234375 32.47664642333984 33.45282745361328 C 33.14879608154297 33.36285400390625 34.13438415527344 33.14860534667969 34.94797134399414 32.33502578735352 C 35.76325988769531 31.51973533630371 35.97669219970703 30.53174591064453 36.06628036499023 29.8597354888916 C 36.16696929931641 29.10184478759766 36.16696929931641 28.18829536437988 36.16696929931641 27.13049507141113 L 36.16696929931641 24.93352508544922 C 36.16696929931641 23.87572479248047 36.16696929931641 22.96218490600586 36.06628036499023 22.20425605773926 C 35.97708129882812 21.53253555297852 35.76409912109375 20.54512596130371 34.94797134399414 19.72899627685547 L 34.86740112304688 19.64814758300781 C 34.06897354125977 18.89935684204102 33.12484741210938 18.69725036621094 32.47560119628906 18.61068725585938 C 31.71770095825195 18.50999450683594 30.80416107177734 18.50999450683594 29.74636077880859 18.50999450683594 L 24.92352104187012 18.50999450683594 M 27.32765007019043 28.01053619384766 C 28.00176048278809 28.01053619384766 28.6783504486084 27.8510856628418 29.28362083435059 27.54976463317871 L 34.82994842529297 24.77827644348145 L 34.82994842529297 27.13049507141113 C 34.82994842529297 27.87586975097656 34.82994842529297 28.54616546630859 34.79405975341797 29.11632537841797 L 34.82343292236328 29.11632537841797 L 34.74665832519531 29.68340492248535 C 34.6416015625 30.45944595336914 34.41336059570312 30.98691558837891 34.00661087036133 31.39367485046387 C 33.59986877441406 31.8004150390625 33.07240295410156 32.02865600585938 32.2947998046875 32.13392639160156 C 31.89227104187012 32.1871452331543 31.28134155273438 32.21471405029297 30.84383010864258 32.22276306152344 L 30.83463096618652 32.22284698486328 L 23.81729125976562 32.22276306152344 C 23.37978172302246 32.21471405029297 22.76885032653809 32.1871452331543 22.36479187011719 32.13371276855469 C 21.58872985839844 32.02865600585938 21.06126022338867 31.8004150390625 20.65452194213867 31.39367485046387 C 20.24777221679688 30.98693466186523 20.01953125 30.45946502685547 19.91432189941406 29.68225479125977 C 19.82534027099609 29.01338577270508 19.82534027099609 28.14083480834961 19.82534027099609 27.1305046081543 L 19.82534027099609 24.77827644348145 L 25.37101173400879 27.54943466186523 C 25.9769401550293 27.8510856628418 26.65353012084961 28.01053619384766 27.32765007019043 28.01053619384766 M 24.92352104187012 18.00999450683594 L 29.74636077880859 18.00999450683594 C 30.82295989990234 18.00999450683594 31.75077056884766 18.00999450683594 32.54145050048828 18.11503601074219 C 33.28543853759766 18.21423721313477 34.38246154785156 18.45347595214844 35.304443359375 19.37544631958008 L 35.30152130126953 19.37544631958008 C 36.22057342529297 20.29449462890625 36.46273803710938 21.39152526855469 36.56193161010742 22.13843536376953 C 36.66696929931641 22.92911529541016 36.66696929931641 23.85692596435547 36.66696929931641 24.93352508544922 L 36.66696929931641 27.13049507141113 C 36.66696929931641 28.20418548583984 36.66696929931641 29.13491630554199 36.56193161010742 29.92558479309082 C 36.46273803710938 30.66958618164062 36.22349166870117 31.76660537719727 35.30152130126953 32.68857574462891 C 34.37955093383789 33.61054611206055 33.28253173828125 33.84979629516602 32.53852844238281 33.94899749755859 C 32.12131500244141 34.00443267822266 22.545654296875 34.00443267822266 22.12844085693359 33.94899749755859 C 21.38444137573242 33.84979629516602 20.28741073608398 33.61054611206055 19.36544036865234 32.68857574462891 C 18.4434700012207 31.76660537719727 18.20421981811523 30.66958618164062 18.10503005981445 29.92558479309082 C 17.99999237060547 29.1349048614502 17.99999237060547 28.20710563659668 17.99999237060547 27.13049507141113 L 17.99999237060547 24.93352508544922 C 17.99999237060547 23.85983467102051 17.99999237060547 22.92911529541016 18.10503005981445 22.1384449005127 C 18.20421981811523 21.39444541931152 18.4434700012207 20.29741477966309 19.36544036865234 19.37544631958008 C 20.28741073608398 18.45347595214844 21.38444137573242 18.21423721313477 22.12844085693359 18.11503601074219 C 22.91911125183105 18.00999450683594 23.84692001342773 18.00999450683594 24.92352104187012 18.00999450683594 Z M 27.32765007019043 28.51053619384766 C 26.57490158081055 28.51053619384766 25.82215118408203 28.33256530761719 25.14818000793457 27.99703598022461 L 20.32534027099609 25.58707618713379 L 20.32534027099609 27.1305046081543 C 20.32534027099609 28.12249565124512 20.32534027099609 28.98027610778809 20.40995025634766 29.61632537841797 C 20.50040054321289 30.28445625305176 20.67837142944336 30.71042633056641 21.00807189941406 31.04012489318848 C 21.33776092529297 31.36981582641602 21.76372909545898 31.54778480529785 22.43186950683594 31.63823509216309 C 22.7849006652832 31.68491554260254 23.35092163085938 31.71409606933594 23.82649040222168 31.72284507751465 C 24.29039001464844 31.72284507751465 30.37073135375977 31.72284507751465 30.83463096618652 31.72284507751465 C 31.31020164489746 31.71409606933594 31.876220703125 31.68491554260254 32.22926330566406 31.63823509216309 C 32.89739990234375 31.54778480529785 33.32337188720703 31.36981582641602 33.65306091308594 31.04012489318848 C 33.98274993896484 30.71042633056641 34.16072845458984 30.28445625305176 34.25118255615234 29.61632537841797 L 34.24533843994141 29.61632537841797 C 34.32994842529297 28.97735595703125 34.32994842529297 28.12249565124512 34.32994842529297 27.13049507141113 L 34.32994842529297 25.58707618713379 L 29.50712013244629 27.99703598022461 C 28.8331413269043 28.33256530761719 28.08040046691895 28.51053619384766 27.32765007019043 28.51053619384766 Z" stroke="none" fill="#fff"/>
      </g>
    </g>
  </g>
</svg>
