<svg xmlns="http://www.w3.org/2000/svg" width="15.125" height="15.114" viewBox="0 0 15.125 15.114">
  <g id="Group_13850" data-name="Group 13850" transform="translate(14185.125 20266.002)">
    <g id="Group_13847" data-name="Group 13847" transform="translate(-14185.125 -20265.51)">
      <g id="Path_6370" data-name="Path 6370" transform="translate(-61.494 -86.775)" fill="none" fill-rule="evenodd">
        <path d="M65.428,87.67a.744.744,0,0,0-1.205-.722A8.3,8.3,0,0,0,69.771,101.4a8.256,8.256,0,0,0,6.153-2.744.722.722,0,0,0-.7-1.169,10.32,10.32,0,0,1-1.691.15,8.283,8.283,0,0,1-8.1-9.964Z" stroke="none"/>
        <path d="M 64.61058807373047 87.68208312988281 C 63.13554382324219 89.11297607421875 62.29363250732422 91.08232879638672 62.29363250732422 93.11852264404297 C 62.29363250732422 97.24156951904297 65.64791107177734 100.5959167480469 69.77089691162109 100.5959167480469 C 71.80079650878906 100.5959167480469 73.74871826171875 99.76364898681641 75.15545654296875 98.30381011962891 C 74.57836151123047 98.39097595214844 74.04585266113281 98.4334716796875 73.53329467773438 98.4334716796875 C 68.528076171875 98.4334716796875 64.45602416992188 94.36135864257812 64.45602416992188 89.35605621337891 C 64.45602416992188 88.7940673828125 64.50801849365234 88.23163604736328 64.61058807373047 87.68208312988281 M 64.70034027099609 86.7747802734375 C 64.83185577392578 86.7747802734375 64.96396636962891 86.80960845947266 65.08221435546875 86.88035583496094 C 65.35385131835938 87.04290008544922 65.49230194091797 87.35970306396484 65.4283447265625 87.66971588134766 C 65.31547546386719 88.21452331542969 65.25602722167969 88.77815246582031 65.25602722167969 89.35605621337891 C 65.25602722167969 93.9244384765625 68.96499633789062 97.63346862792969 73.53329467773438 97.63346862792969 C 74.11119079589844 97.63346862792969 74.67478942871094 97.57402038574219 75.22410583496094 97.48297119140625 C 75.52432250976562 97.42125701904297 75.83135986328125 97.55594635009766 75.98862457275391 97.81932830810547 C 76.14664459228516 98.08270263671875 76.12031555175781 98.41680145263672 75.92391967773438 98.65233612060547 C 74.40842437744141 100.3364105224609 72.21269226074219 101.3959197998047 69.77089691162109 101.3959197998047 C 65.20260620117188 101.3959197998047 61.49363708496094 97.6868896484375 61.49363708496094 93.11852264404297 C 61.49363708496094 90.67666625976562 62.55313110351562 88.48091125488281 64.22287750244141 86.94808959960938 C 64.36012268066406 86.83335113525391 64.52973937988281 86.77477264404297 64.70034027099609 86.7747802734375 Z" stroke="none" fill="#000"/>
      </g>
    </g>
    <g id="Group_13848" data-name="Group 13848" transform="translate(-14171.908 -20263.125) rotate(135)">
      <path id="Path_6371" data-name="Path 6371" d="M4.044,3.836a.151.151,0,0,1-.209.209c-.168-.113-.358-.239-.548-.366a2.26,2.26,0,0,0-2.5,0C.592,3.8.4,3.931.234,4.044a.148.148,0,0,1-.189-.019.148.148,0,0,1-.019-.189c.113-.168.239-.358.366-.548a2.26,2.26,0,0,0,0-2.5C.265.592.139.4.026.234A.148.148,0,0,1,.045.045.148.148,0,0,1,.234.026C.4.139.592.265.783.391a2.26,2.26,0,0,0,2.5,0c.191-.126.38-.252.548-.366a.148.148,0,0,1,.189.019.148.148,0,0,1,.019.189C3.931.4,3.8.592,3.679.783a2.26,2.26,0,0,0,0,2.5C3.8,3.478,3.931,3.667,4.044,3.836Z" transform="translate(0 0)" fill-rule="evenodd"/>
    </g>
    <g id="Group_13849" data-name="Group 13849" transform="translate(-14171.574 -20258.352) rotate(-135)">
      <path id="Path_6372" data-name="Path 6372" d="M2.2,1.992a.151.151,0,0,1-.209.209L1.53,1.893a.752.752,0,0,0-.835,0L.234,2.2a.149.149,0,0,1-.19-.019.149.149,0,0,1-.019-.19L.333,1.53A.752.752,0,0,0,.333.7L.025.234A.149.149,0,0,1,.045.045.149.149,0,0,1,.234.025L.7.333a.752.752,0,0,0,.835,0L1.992.025a.149.149,0,0,1,.19.019A.149.149,0,0,1,2.2.234L1.893.7a.752.752,0,0,0,0,.835Z" transform="translate(0 0)" fill-rule="evenodd"/>
    </g>
  </g>
</svg>
