<svg xmlns="http://www.w3.org/2000/svg" width="27.016" height="26.702" viewBox="0 0 27.016 26.702">
  <path id="Union_631" data-name="Union 631" d="M19730.01,14077.7a3.005,3.005,0,0,1-3.01-2.979v-18.746a3.011,3.011,0,0,1,3.01-3.007h1.773v1.4a2.252,2.252,0,0,0,4.5,0v-1.4h8.414v1.4a2.281,2.281,0,0,0,2.279,2.247,2.257,2.257,0,0,0,2.252-2.247v-1.4h1.746a3.051,3.051,0,0,1,3.037,3.007v18.718a3.011,3.011,0,0,1-3.01,3.007Zm-1.322-3.092a1.358,1.358,0,0,0,1.41,1.4h20.824a1.358,1.358,0,0,0,1.406-1.4v-14.052h-23.641Zm9.852-3.271-2.732-2.728a1.063,1.063,0,0,1,1.5-1.5l1.98,1.975,4.566-4.657c.424-.426,2.023,1.083,1.6,1.5l-5.414,5.408a1.006,1.006,0,0,1-.752.33A.98.98,0,0,1,19738.539,14071.339Zm7.316-16.965v-2.251a1.125,1.125,0,0,1,2.25,0v2.251a1.125,1.125,0,1,1-2.25,0Zm-12.945,0v-2.251a1.126,1.126,0,0,1,2.252,0v2.251a1.126,1.126,0,1,1-2.252,0Z" transform="translate(-19727 -14051)" fill="#fff"/>
</svg>
