<svg xmlns="http://www.w3.org/2000/svg" width="27.12" height="23.575" viewBox="0 0 27.12 23.575">
  <g id="Group_12825" data-name="Group 12825" transform="translate(16086.12 17666)">
    <path id="Path_6026" data-name="Path 6026" d="M23.735,35.472V48.028h2.619V35.472l3,3,1.851-1.851L25.97,31.386a1.31,1.31,0,0,0-1.851,0L18.88,36.625l1.851,1.851Z" transform="translate(-16105 -17693.51)" fill="#fff"/>
    <path id="Path_6027" data-name="Path 6027" d="M66.351,39.59V26.056A3.056,3.056,0,0,0,63.295,23H58.056A3.056,3.056,0,0,0,55,26.056V43.519a3.056,3.056,0,0,0,3.056,3.056h5.239a3.056,3.056,0,0,0,3.056-3.056ZM57.619,32.6h6.112V36.97H57.619Zm.437-6.985h5.239a.437.437,0,0,1,.437.437v3.929H57.619V26.056A.437.437,0,0,1,58.056,25.619Zm5.239,18.336H58.056a.437.437,0,0,1-.437-.437V39.59h6.112v3.929A.437.437,0,0,1,63.295,43.956Z" transform="translate(-16125.351 -17689)" fill="#fff"/>
  </g>
</svg>
