<svg xmlns="http://www.w3.org/2000/svg" width="12.12" height="12.108" viewBox="0 0 12.12 12.108">
  <path id="Path_6223" data-name="Path 6223" d="M30.87,20a2.089,2.089,0,0,0-2.951,0l-7.47,7.47a.3.3,0,0,0-.087.21.292.292,0,0,0,0,.032l-.989,3.408a.3.3,0,0,0,.364.368l3.531-.989h.038a.293.293,0,0,0,.087-.057h0l7.478-7.487a2.087,2.087,0,0,0,0-2.951ZM20.823,28.267l1.8,1.8-2.53.708Zm9.628-5.737-.433.433-2.113-2.107.433-.433a1.495,1.495,0,1,1,2.113,2.115Z" transform="translate(-19.362 -19.394)" fill="#14171f"/>
</svg>
