<svg xmlns="http://www.w3.org/2000/svg" width="27.876" height="28.774" viewBox="0 0 27.876 28.774">
  <g id="Group_12832" data-name="Group 12832" transform="translate(15982 17281)">
    <path id="Path_6035" data-name="Path 6035" d="M28.891,44.975v-2.7H23.046A1.349,1.349,0,0,1,21.7,40.929V25.643a1.349,1.349,0,0,1,1.349-1.349H39.232a1.349,1.349,0,0,1,1.349,1.349V28.79h2.7V25.643A4.046,4.046,0,0,0,39.232,21.6V18h-2.7v3.6H32.488V18h-2.7v3.6H25.744V18h-2.7v3.6A4.046,4.046,0,0,0,19,25.643V40.929a4.046,4.046,0,0,0,4.046,4.046Z" transform="translate(-16001 -17299)" fill="#fff"/>
    <rect id="Rectangle_2730" data-name="Rectangle 2730" width="11" height="3" transform="translate(-15975 -17271)" fill="#fff"/>
    <rect id="Rectangle_2731" data-name="Rectangle 2731" width="5" height="3" transform="translate(-15975 -17264)" fill="#fff"/>
    <path id="Path_6036" data-name="Path 6036" d="M58.393,48a3.866,3.866,0,0,0-2.751,1.142l-7.193,7.193A4.914,4.914,0,0,0,47,59.829v3.457h3.457a4.914,4.914,0,0,0,3.5-1.448l7.193-7.193A3.893,3.893,0,0,0,58.393,48Zm.845,4.739-7.193,7.193a2.248,2.248,0,0,1-1.587.656H49.7v-.76a2.248,2.248,0,0,1,.656-1.592l7.193-7.193a1.2,1.2,0,1,1,1.69,1.69Z" transform="translate(-16016.411 -17315.512)" fill="#fff"/>
  </g>
</svg>
