<svg xmlns="http://www.w3.org/2000/svg" width="26" height="22" viewBox="0 0 26 22">
  <path id="Path_1040" data-name="Path 1040" d="M25,9H21V8a3.009,3.009,0,0,0-3-3H14a3.009,3.009,0,0,0-3,3V9H7a4,4,0,0,0-4,4V23a4,4,0,0,0,4,4H25a4,4,0,0,0,4-4V13A4,4,0,0,0,25,9ZM13,8a1,1,0,0,1,1-1h4a1,1,0,0,1,1,1V9H13ZM7,11H25a2.015,2.015,0,0,1,1.96,1.59A4.98,4.98,0,0,1,22,17H17a1,1,0,0,0-2,0H10a4.987,4.987,0,0,1-4.96-4.41A2,2,0,0,1,7,11ZM27,23a2.006,2.006,0,0,1-2,2H7a2.006,2.006,0,0,1-2-2V16.9A6.978,6.978,0,0,0,10,19h5a1,1,0,0,0,2,0h5a6.978,6.978,0,0,0,5-2.1Z" transform="translate(-3 -5)" fill="#fff"/>
</svg>
