<svg xmlns="http://www.w3.org/2000/svg" width="44.91" height="34.005" viewBox="0 0 44.91 34.005">
  <g id="Group_14191" data-name="Group 14191" transform="translate(-727.901 -268.899)">
    <path id="Path_6418" data-name="Path 6418" d="M-18984.148,2423.293l11.443-12.4v9.347h4.77l-11.443,12.78,3.051-10.682Z" transform="translate(19725.48 -2134.808)" fill="#00cf9e"/>
    <path id="Path_6417" data-name="Path 6417" d="M36.807,36.447H33.061l1.014-8.113a.547.547,0,0,0-.315-.562.554.554,0,0,0-.633.13l-9.814,10.9a.553.553,0,0,0-.094.588.559.559,0,0,0,.5.324h3.746l-1.014,8.113a.543.543,0,0,0,.941.432l9.814-10.9a.553.553,0,0,0,.094-.588.543.543,0,0,0-.5-.324Zm-9.056,9.793.873-7a.55.55,0,0,0-.13-.43.558.558,0,0,0-.411-.181H24.949l7.836-8.7-.873,7a.55.55,0,0,0,.13.43.534.534,0,0,0,.4.181h3.135ZM50.04,27.724H47.713a.546.546,0,0,0-.545.545v3.817H44.986V24.991a1.631,1.631,0,0,0-1.629-1.629H34.081V20.09H41.17a.545.545,0,1,0,0-1.09H25.9a.545.545,0,0,0,0,1.09h7.088v3.271H23.733A2.89,2.89,0,0,0,21.509,24.4l-4.422,5.305a.541.541,0,0,1-.415.2H14.994a1.631,1.631,0,0,0-1.631,1.629v6H10.091V30.45a.545.545,0,0,0-1.09,0V45.717a.545.545,0,1,0,1.09,0V38.628h3.271v6a1.631,1.631,0,0,0,1.629,1.629H16.67a.541.541,0,0,1,.415.2l4.422,5.305A2.894,2.894,0,0,0,23.731,52.8H36.723a2.91,2.91,0,0,0,2.317-1.157l5.619-7.5a1.659,1.659,0,0,0,.328-.975V41.9h2.181v3.817a.546.546,0,0,0,.545.545h2.328a3.674,3.674,0,0,0,3.67-3.67v-11.2a3.674,3.674,0,0,0-3.67-3.67ZM43.9,43.176a.532.532,0,0,1-.109.322l-5.623,7.5a1.8,1.8,0,0,1-1.438.72H23.733a1.79,1.79,0,0,1-1.384-.65l-4.422-5.305a1.638,1.638,0,0,0-1.254-.588H14.994a.539.539,0,0,1-.541-.539v-13.1A.537.537,0,0,1,14.992,31H16.67a1.625,1.625,0,0,0,1.254-.588L22.346,25.1a1.79,1.79,0,0,1,1.384-.65H43.353a.537.537,0,0,1,.539.539l0,7.64Zm8.724-.584a2.581,2.581,0,0,1-2.579,2.579H48.257V41.355a.546.546,0,0,0-.545-.545H44.986V33.176h2.726a.546.546,0,0,0,.545-.545V28.814H50.04a2.581,2.581,0,0,1,2.579,2.579Z" transform="translate(719 250)" stroke="#000" stroke-width="0.2"/>
  </g>
</svg>
