<svg xmlns="http://www.w3.org/2000/svg" width="18.295" height="17.2" viewBox="0 0 18.295 17.2">
  <path id="Pump" d="M15.13,8.695H7.347V8.223a.265.265,0,0,0-.265-.265H5.432a.265.265,0,0,0-.265.265v4.714a.265.265,0,0,0,.265.265h1.65a.265.265,0,0,0,.265-.265v-.471H8.27a8.13,8.13,0,1,0,6.86-3.771ZM6.817,12.672H5.7V8.488H6.817v4.184ZM15.13,24.428A7.6,7.6,0,0,1,8.908,12.466h4.019a4.921,4.921,0,0,0-1.243.894l-.012.008a.14.14,0,0,0-.008.012,4.881,4.881,0,0,0,0,6.892s0,.009.008.013.009,0,.013.008a4.881,4.881,0,0,0,6.891,0l.012-.008s0-.008.008-.012a4.882,4.882,0,0,0,0-6.893s0-.008-.008-.012-.008,0-.012-.008a4.874,4.874,0,0,0-3.446-1.425H7.347V9.225H15.13a7.6,7.6,0,1,1,0,15.2Zm4.347-7.867H16.65a1.523,1.523,0,0,0-.257-.623l2-2A4.335,4.335,0,0,1,19.477,16.561Zm-7.232,3.526,2-2a1.538,1.538,0,0,0,.623.257v2.827A4.339,4.339,0,0,1,12.245,20.087Zm-1.462-3h2.827a1.53,1.53,0,0,0,.257.623l-2,2A4.336,4.336,0,0,1,10.783,17.091Zm5.363-.265A1.016,1.016,0,1,1,15.13,15.81,1.018,1.018,0,0,1,16.147,16.826Zm-1.282-1.52a1.533,1.533,0,0,0-.623.257l-2-2a4.334,4.334,0,0,1,2.62-1.086Zm-3-1.365,2,2a1.533,1.533,0,0,0-.257.623H10.783A4.339,4.339,0,0,1,11.87,13.941ZM15.4,18.346a1.53,1.53,0,0,0,.623-.257l2,2a4.336,4.336,0,0,1-2.62,1.086Zm3,1.366-2-2a1.537,1.537,0,0,0,.257-.623h2.827A4.34,4.34,0,0,1,18.391,19.712Zm-2.373-4.148a1.536,1.536,0,0,0-.623-.257V12.479a4.334,4.334,0,0,1,2.62,1.086Z" transform="translate(-5.067 -7.858)" fill="#e84d88" stroke="#e84d88" stroke-width="0.2"/>
</svg>
