<svg xmlns="http://www.w3.org/2000/svg" width="44" height="44" viewBox="0 0 44 44">
  <g id="Group_13204" data-name="Group 13204" transform="translate(-181.632 -167.631)">
    <g id="Group_13201" data-name="Group 13201" transform="translate(50 -24.035)">
      <circle id="Ellipse_2093" data-name="Ellipse 2093" cx="22" cy="22" r="22" transform="translate(131.632 191.666)" fill="#37009b"/>
    </g>
    <g id="Layer_2" data-name="Layer 2" transform="translate(191.011 181.469)">
      <g id="Layer_1" data-name="Layer 1" transform="translate(0.989 0.531)">
        <path id="Path_3017" data-name="Path 3017" d="M17.413,9.949h6.625l.1.207a1.29,1.29,0,0,1,.127.562v3.371H17.413Zm0-4.754a.509.509,0,0,1,.514-.506h3.228a.514.514,0,0,1,.456.284l2.168,4.446h-6.36ZM7.56,18.988A2.019,2.019,0,1,1,6.137,15.54h0a2.019,2.019,0,0,1,1.42,3.445Zm14.427.032a2,2,0,0,1-1.41.586h0a2.019,2.019,0,1,1,0-4.036h0A2.019,2.019,0,0,1,22,19.014Zm2.83-2.79a.125.125,0,0,1-.122.125H22.8a2.552,2.552,0,0,0-2.229-1.325h0a2.533,2.533,0,0,0-1.8.742,2.626,2.626,0,0,0-.432.57l-9.962-.024a2.666,2.666,0,0,0-.427-.57A2.536,2.536,0,0,0,6.15,15h0a2.533,2.533,0,0,0-1.8.742,2.462,2.462,0,0,0-.429.567H2.016a.119.119,0,0,1-.122-.122V14.719a.122.122,0,0,1,.119-.125l8.313.019H11.2l13.494.026a.119.119,0,0,1,.122.122Z" transform="translate(-1.462 -3.277)" fill="#fff"/>
        <path id="Path_3026" data-name="Path 3026" d="M14.529,3.985a1.612,1.612,0,0,1,.231,1.3h0l-.788,3.426a1.565,1.565,0,0,1-.738,1.039,9.846,9.846,0,0,1-4.312,1.051H8.4L10.746,1a9.957,9.957,0,0,1,3.786,2.986ZM7.436.059a9.482,9.482,0,0,1,2.572.623L10.057.7c.079.03.153.066.231.1L7.9,10.786H7.748l-.185-.015a2.666,2.666,0,0,1-.278-.03l-.155-.034-.3-.047-.135-.025c-.143-.027-.286-.054-.428-.089s-.364-.086-.532-.135l-.172-.054c-.118-.037-.246-.074-.352-.116L5,10.166c-.108-.039-.214-.079-.322-.123l-.214-.094-.214-.1L6.6,0A3.627,3.627,0,0,1,6.97.012C7.091.024,7.283.042,7.436.059ZM.258,6.678A1.6,1.6,0,0,1,.039,5.4L.79,2.156A1.625,1.625,0,0,1,1.548,1.1,9.782,9.782,0,0,1,6.1,0L3.8,9.634A9.767,9.767,0,0,1,.258,6.678Z" transform="translate(0.011 0)" fill="#fff"/>
      </g>
    </g>
  </g>
</svg>
