<svg id="Group_14076" data-name="Group 14076" xmlns="http://www.w3.org/2000/svg" width="22.164" height="29.732" viewBox="0 0 22.164 29.732">
  <path id="Path_6361" data-name="Path 6361" d="M16.159,9.926a.659.659,0,0,0,.659-.659V5.379a.659.659,0,1,0-1.318,0V9.267A.659.659,0,0,0,16.159,9.926Z" transform="translate(-8.862 -4.72)"/>
  <path id="Path_6362" data-name="Path 6362" d="M16.159,23.33a.659.659,0,0,0-.659.659v3.888a.659.659,0,1,0,1.318,0V23.989A.659.659,0,0,0,16.159,23.33Z" transform="translate(-8.862 1.197)"/>
  <path id="Path_6364" data-name="Path 6364" d="M22.162,21.23a.659.659,0,1,0-.932.932L23.98,24.91a.659.659,0,0,0,.933-.932Z" transform="translate(-7.101 0.468)"/>
  <path id="Path_6366" data-name="Path 6366" d="M27.877,15.5H23.989a.659.659,0,1,0,0,1.318h3.888a.659.659,0,1,0,0-1.318Z" transform="translate(-6.372 -1.293)"/>
  <path id="Path_6368" data-name="Path 6368" d="M21.7,11.944a.662.662,0,0,0,.467-.192L24.911,9a.659.659,0,0,0-.932-.932L21.23,10.82a.659.659,0,0,0,0,.932A.651.651,0,0,0,21.7,11.944Z" transform="translate(-7.101 -3.716)"/>
  <g id="Group_13843" data-name="Group 13843" transform="translate(0 7.569)">
    <path id="Path_6369" data-name="Path 6369" d="M17.76,25.058a7.3,7.3,0,1,1,7.3-7.3A7.306,7.306,0,0,1,17.76,25.058Zm0-13.277A5.979,5.979,0,1,0,23.74,17.76,5.987,5.987,0,0,0,17.76,11.781Z" transform="translate(-10.463 -10.463)"/>
  </g>
</svg>
