<svg xmlns="http://www.w3.org/2000/svg" width="15.525" height="29.734" viewBox="0 0 15.525 29.734">
  <g id="theme" transform="translate(-1052.85 -101.29)">
    <path id="Path_6374" data-name="Path 6374" d="M16.159,9.926a.659.659,0,0,1-.659-.659V5.379a.659.659,0,0,1,1.318,0V9.267A.659.659,0,0,1,16.159,9.926Z" transform="translate(1051.558 96.57)"/>
    <path id="Path_6375" data-name="Path 6375" d="M16.159,23.33a.659.659,0,0,1,.659.659v3.888a.659.659,0,1,1-1.318,0V23.989A.659.659,0,0,1,16.159,23.33Z" transform="translate(1051.558 102.488)"/>
    <path id="Path_6376" data-name="Path 6376" d="M23.981,21.23a.659.659,0,1,1,.932.932L22.164,24.91a.659.659,0,0,1-.933-.932Z" transform="translate(1035.972 101.758)"/>
    <path id="Path_6377" data-name="Path 6377" d="M23.989,15.5h3.888a.659.659,0,1,1,0,1.318H23.989a.659.659,0,1,1,0-1.318Z" transform="translate(1029.521 99.998)"/>
    <path id="Path_6378" data-name="Path 6378" d="M24.446,11.944a.662.662,0,0,1-.467-.192L21.231,9a.659.659,0,1,1,.932-.932l2.749,2.749a.659.659,0,0,1,0,.932A.651.651,0,0,1,24.446,11.944Z" transform="translate(1035.974 97.574)"/>
  </g>
</svg>
