<svg xmlns="http://www.w3.org/2000/svg" width="46.461" height="31.675" viewBox="0 0 46.461 31.675">
  <g id="Group_14180" data-name="Group 14180" transform="translate(0.15 0.15)">
    <path id="Path_6414" data-name="Path 6414" d="M-19455.654,2399.516h-2.9l-4.971,1.8,4.281,19.06h4.281l2.762-1.1,1.381-.967Z" transform="translate(19488.494 -2398.812)" fill="#00cf9e"/>
    <g id="Layer_2" data-name="Layer 2" transform="translate(0 0)">
      <g id="Layer_1" data-name="Layer 1" transform="translate(0 0)">
        <g id="Group_14177" data-name="Group 14177" transform="translate(0 0)">
          <path id="Path_6406" data-name="Path 6406" d="M2.742,49.931H6.375a.481.481,0,1,0,0-.961H2.728a.207.207,0,0,1-.2-.183V46.139a.207.207,0,0,1,.207-.207l26.7-.029a.317.317,0,0,0,.135,0h1.437l14.767-.053a.207.207,0,0,1,.207.207v2.628a.2.2,0,0,1-.207.2H42.126a.481.481,0,1,0,0,.961h3.652a1.168,1.168,0,0,0,1.168-1.168V46.058a1.168,1.168,0,0,0-1.168-1.168l-16.223.053h-.048L2.738,45A1.168,1.168,0,0,0,1.57,46.14v2.647A1.168,1.168,0,0,0,2.742,49.931ZM29.4,44.943Z" transform="translate(-1.57 -23.317)" stroke="#000" stroke-width="0.3"/>
          <path id="Path_6408" data-name="Path 6408" d="M12.718,22.582H13.78a20.24,20.24,0,0,0,3.7-.481,21.143,21.143,0,0,0,4.373-1.547,19.784,19.784,0,0,0,7.66-6.247,4,4,0,0,0,.567-3.258L28.642,4.855A4.051,4.051,0,0,0,26.72,2.222,19.9,19.9,0,0,0,16.965,0a10.99,10.99,0,0,0-1.124.038A19.923,19.923,0,0,0,9.748,1.376H9.69A20.5,20.5,0,0,0,.68,8a4.06,4.06,0,0,0-.6,3.268l1.514,6.564a3.94,3.94,0,0,0,1.874,2.609,19.942,19.942,0,0,0,9.25,2.143ZM17.316.958a18.837,18.837,0,0,1,8.952,2.109A3.114,3.114,0,0,1,27.71,5.081l1.442,6.194a3.066,3.066,0,0,1-.418,2.436,18.929,18.929,0,0,1-7.285,5.92,20.182,20.182,0,0,1-4.176,1.475,19.3,19.3,0,0,1-3.532.481,19.371,19.371,0,0,1-9.817-1.994,2.974,2.974,0,0,1-1.389-1.98L1.017,11.049h0a3.075,3.075,0,0,1,.442-2.484A19.726,19.726,0,0,1,10.012,2.3a.562.562,0,0,0,.1-.029A18.827,18.827,0,0,1,15.9,1,10.073,10.073,0,0,1,16.98.958Z" transform="translate(15.937 0.005)" stroke="#000" stroke-width="0.3"/>
          <path id="Path_6409" data-name="Path 6409" d="M22.055,22.556h0a20.24,20.24,0,0,0,3.7-.481,21.143,21.143,0,0,0,4.373-1.547.481.481,0,0,0,.259-.543L25.736.375A.481.481,0,0,0,25.255.01h0a10.943,10.943,0,0,0-1.12.038,19.923,19.923,0,0,0-6.093,1.336h-.058c-.481.187-.649.269-.75.312l-.082.038a.481.481,0,0,0-.317.567l4.748,19.884A.481.481,0,0,0,22.055,22.556ZM29.388,19.8a19.928,19.928,0,0,1-3.844,1.312,19.591,19.591,0,0,1-3.138.481L17.865,2.484l.442-.178a.562.562,0,0,0,.1-.029A18.827,18.827,0,0,1,24.2,1,5.4,5.4,0,0,0,24.89.976Z" transform="translate(7.642 -0.003)" stroke="#000" stroke-width="0.3"/>
          <path id="Path_6410" data-name="Path 6410" d="M14.356,57.452h0a4.536,4.536,0,1,0,0-9.072h0a4.536,4.536,0,1,0,0,9.072Zm0-8.111a3.575,3.575,0,1,1,0,7.15h0a3.575,3.575,0,1,1,0-7.15Z" transform="translate(22.521 -26.13)" stroke="#000" stroke-width="0.3"/>
          <path id="Path_6411" data-name="Path 6411" d="M73.416,57.562h0a4.536,4.536,0,1,0,0-9.072h0a4.536,4.536,0,1,0,0,9.072Zm0-8.111a3.575,3.575,0,1,1,0,7.15h0a3.58,3.58,0,0,1-3.575-3.541h0a3.585,3.585,0,0,1,3.57-3.585Z" transform="translate(-64.92 -26.187)" stroke="#000" stroke-width="0.3"/>
          <path id="Path_6412" data-name="Path 6412" d="M65.161,26.891H78.288a.481.481,0,0,0,.481-.481V10.14a1.855,1.855,0,0,0-1.855-1.85H71.177a1.864,1.864,0,0,0-1.691,1.038h0l-4.464,9.2a3.272,3.272,0,0,0-.341,1.413V26.41A.481.481,0,0,0,65.161,26.891Zm12.647-.961H65.641V19.942a2.282,2.282,0,0,1,.231-.99l4.5-9.2a.9.9,0,0,1,.8-.481h5.737a.889.889,0,0,1,.894.889Z" transform="translate(-63.718 -4.304)" stroke="#000" stroke-width="0.3"/>
          <path id="Path_6413" data-name="Path 6413" d="M65.19,18.592H77.717a.481.481,0,0,0,.481-.481V10.14a1.855,1.855,0,0,0-1.855-1.85H70.605a1.864,1.864,0,0,0-1.691,1.038L64.733,17.9a.474.474,0,0,0,.456.692Zm12.047-.961H65.958L69.8,9.751a.9.9,0,0,1,.8-.481h5.737a.889.889,0,0,1,.894.889Z" transform="translate(-63.146 -4.304)" stroke="#000" stroke-width="0.3"/>
        </g>
      </g>
    </g>
  </g>
</svg>
