<svg xmlns="http://www.w3.org/2000/svg" width="25.635" height="25.635" viewBox="0 0 25.635 25.635">
  <g id="Group_13203" data-name="Group 13203" transform="translate(-463.461 267.345) rotate(-90)">
    <circle id="Ellipse_2090" data-name="Ellipse 2090" cx="12.818" cy="12.818" r="12.818" transform="translate(241.71 463.461)" fill="#171717"/>
    <g id="Layer_1" data-name="Layer 1" transform="translate(260.345 468.461) rotate(90)">
      <path id="Path_3017" data-name="Path 3017" d="M12.718,8.358h4.62l.07.144a.9.9,0,0,1,.089.392v2.351H12.718Zm0-3.316a.355.355,0,0,1,.359-.353h2.251a.359.359,0,0,1,.318.2l1.512,3.1H12.721ZM5.846,14.662a1.408,1.408,0,1,1-.992-2.4h0a1.408,1.408,0,0,1,.991,2.4Zm10.062.022a1.393,1.393,0,0,1-.983.408h0a1.408,1.408,0,1,1,0-2.815h0a1.408,1.408,0,0,1,.991,2.4Zm1.974-1.946a.087.087,0,0,1-.085.087H16.475a1.78,1.78,0,0,0-1.554-.924h0a1.767,1.767,0,0,0-1.255.517,1.832,1.832,0,0,0-.3.4L6.417,12.8a1.859,1.859,0,0,0-.3-.4,1.769,1.769,0,0,0-1.257-.521h0a1.767,1.767,0,0,0-1.255.517,1.717,1.717,0,0,0-.3.4H1.979a.083.083,0,0,1-.085-.085V11.684a.085.085,0,0,1,.083-.087l5.8.013h.61l9.411.018a.083.083,0,0,1,.085.085Z" transform="translate(-1.593 -3.704)" fill="#fff"/>
      <path id="Path_3026" data-name="Path 3026" d="M10.13,2.779a1.124,1.124,0,0,1,.161.91h0l-.549,2.39a1.092,1.092,0,0,1-.515.724,6.867,6.867,0,0,1-3.008.733H5.857L7.492.7a6.944,6.944,0,0,1,2.64,2.082ZM5.183.041A6.613,6.613,0,0,1,6.977.475l.034.012c.055.021.106.046.161.07L5.507,7.522H5.4l-.129-.01a1.859,1.859,0,0,1-.194-.021L4.97,7.467l-.211-.033-.094-.017c-.1-.019-.2-.038-.3-.062s-.254-.06-.371-.094l-.12-.038c-.082-.026-.172-.052-.245-.081L3.485,7.09C3.409,7.062,3.335,7.035,3.26,7l-.149-.065-.149-.072L4.6,0a2.53,2.53,0,0,1,.256.009C4.942.017,5.076.029,5.183.041ZM.177,4.657a1.118,1.118,0,0,1-.153-.894L.547,1.5A1.133,1.133,0,0,1,1.076.767,6.822,6.822,0,0,1,4.25,0L2.645,6.719A6.812,6.812,0,0,1,.177,4.657Z" transform="translate(0.011 0)" fill="#fff"/>
    </g>
  </g>
</svg>
