<svg id="Group_13134" data-name="Group 13134" xmlns="http://www.w3.org/2000/svg" width="60" height="60" viewBox="0 0 60 60">
  <path id="Path_947" data-name="Path 947" d="M39.958,20.267a12.02,12.02,0,0,0-3.724-8.673,13.027,13.027,0,0,0-17.97,0,11.962,11.962,0,0,0,0,17.346,13.027,13.027,0,0,0,17.97,0A12.02,12.02,0,0,0,39.958,20.267ZM12,44.8c0,2.453,5.719,4.907,15.25,4.907,8.947,0,15.25-2.453,15.25-4.907,0-4.907-5.986-9.814-15.25-9.814C17.719,34.988,12,39.895,12,44.8Z" transform="translate(2.75 1.167)"/>
  <path id="Path_948" data-name="Path 948" d="M0,0H60V60H0Z" fill="none"/>
</svg>
