<svg id="Group_628" data-name="Group 628" xmlns="http://www.w3.org/2000/svg" width="17.533" height="21.54" viewBox="0 0 17.533 21.54">
  <path id="Path_906" data-name="Path 906" d="M269.531,179.891a1.252,1.252,0,0,1-1.249,1.252H253.247A1.253,1.253,0,0,1,252,179.891a8.767,8.767,0,1,1,17.533,0Zm-8.767-7.264a7.264,7.264,0,0,0-7.259,7.013h14.518a7.264,7.264,0,0,0-7.259-7.013Zm0-2.5a5.26,5.26,0,1,1,5.26-5.26A5.26,5.26,0,0,1,260.765,170.123Zm0-1.5a3.757,3.757,0,1,0-3.757-3.757A3.757,3.757,0,0,0,260.765,168.62Z" transform="translate(-251.998 -159.603)" fill="#354c2a"/>
</svg>
