<svg xmlns="http://www.w3.org/2000/svg" width="49.725" height="26.7" viewBox="0 0 49.725 26.7">
  <g id="Group_14193" data-name="Group 14193" transform="translate(-488.423 -620.155)">
    <circle id="Ellipse_2077" data-name="Ellipse 2077" cx="8" cy="8" r="8" transform="translate(505 621)" fill="#00cf9e"/>
    <path id="Path_6428" data-name="Path 6428" d="M45.44,39.707a6.354,6.354,0,0,0,1.691-4.326,6.166,6.166,0,1,0-10.789,4.127A8.793,8.793,0,0,0,34.3,41.3a13.655,13.655,0,0,0-3.331-2.983A8.726,8.726,0,1,0,16.3,32a8.836,8.836,0,0,0,2.387,6.066,12.063,12.063,0,0,0-3.58,3.132,8.365,8.365,0,0,0-1.74-1.492,6.354,6.354,0,0,0,1.691-4.326A6.261,6.261,0,0,0,8.9,29.067a6.388,6.388,0,0,0-6.315,6.315,6.3,6.3,0,0,0,1.541,4.127A8.705,8.705,0,0,0,0,47.215a.765.765,0,0,0,.746.746h0a.692.692,0,0,0,.7-.746A7.214,7.214,0,0,1,5.216,40.6a3.708,3.708,0,0,0,.6.348h.05a5.945,5.945,0,0,0,4.773.447h0c.2-.05.4-.149.547-.2h0a8.639,8.639,0,0,0,.945-.5,7.773,7.773,0,0,1,2.039,1.79,12.333,12.333,0,0,0-1.691,6.663.765.765,0,0,0,.746.746h0a.692.692,0,0,0,.7-.746,11.141,11.141,0,0,1,1.79-6.315h0a10.41,10.41,0,0,1,4.077-3.679c.1.05.149.1.249.149l.05.05a4.539,4.539,0,0,0,.646.4h0a8.543,8.543,0,0,0,7.458.4.049.049,0,0,0,.05-.05,4.546,4.546,0,0,0,.7-.348h.05c.249-.149.5-.3.7-.447a12.159,12.159,0,0,1,3.878,3.58.174.174,0,0,0,.05.1A12.261,12.261,0,0,1,35.745,49.2a.756.756,0,0,0,.746.7h.05a.8.8,0,0,0,.7-.8A14.445,14.445,0,0,0,35.1,42.591,7.354,7.354,0,0,1,37.386,40.6c.2.149.4.249.547.348h.05a5.945,5.945,0,0,0,4.773.447h0c.2-.05.348-.149.547-.2h0a8.64,8.64,0,0,0,.945-.5,8.376,8.376,0,0,1,3.978,6.563.756.756,0,0,0,.746.7h.05a.8.8,0,0,0,.7-.8A9.848,9.848,0,0,0,45.44,39.707ZM8.746,30.559a4.775,4.775,0,0,1,4.723,4.823,4.874,4.874,0,0,1-2.039,3.978l-.05.05a1.246,1.246,0,0,1-.348.2h-.05a5.8,5.8,0,0,1-1.293.5h0a6.092,6.092,0,0,1-.945.1,6.268,6.268,0,0,1-1.392-.2H7.3c-.149-.05-.249-.1-.4-.149h-.05a4.831,4.831,0,0,1-2.884-4.425A4.894,4.894,0,0,1,8.746,30.559Zm16.11-5.917a7.321,7.321,0,0,1,4.077,13.325c-.05,0-.05.05-.1.05-.149.1-.348.2-.5.3a.049.049,0,0,0-.05.05,7.186,7.186,0,0,1-3.431.895,6.221,6.221,0,0,1-2.138-.348h-.05a3.041,3.041,0,0,1-.6-.249h-.05a7.32,7.32,0,0,1,2.834-14.021Zm16.06,5.917a4.775,4.775,0,0,1,4.723,4.823A4.874,4.874,0,0,1,43.6,39.359l-.05.05a1.246,1.246,0,0,1-.348.2h-.05a5.8,5.8,0,0,1-1.293.5h0a6.092,6.092,0,0,1-.945.1,6.268,6.268,0,0,1-1.392-.2h-.05c-.149-.05-.249-.1-.4-.149h-.05a4.831,4.831,0,0,1-2.884-4.425A4.894,4.894,0,0,1,40.916,30.559Z" transform="translate(488.432 596.955)"/>
  </g>
</svg>
